%TF.GenerationSoftware,KiCad,Pcbnew,(6.0.10)*%
%TF.CreationDate,2023-02-10T15:19:28+05:30*%
%TF.ProjectId,MpptDemoBoard,4d707074-4465-46d6-9f42-6f6172642e6b,rev?*%
%TF.SameCoordinates,Original*%
%TF.FileFunction,Copper,L2,Bot*%
%TF.FilePolarity,Positive*%
%FSLAX46Y46*%
G04 Gerber Fmt 4.6, Leading zero omitted, Abs format (unit mm)*
G04 Created by KiCad (PCBNEW (6.0.10)) date 2023-02-10 15:19:28*
%MOMM*%
%LPD*%
G01*
G04 APERTURE LIST*
%TA.AperFunction,ComponentPad*%
%ADD10C,3.800000*%
%TD*%
%TA.AperFunction,ComponentPad*%
%ADD11C,2.032000*%
%TD*%
%TA.AperFunction,ViaPad*%
%ADD12C,0.800000*%
%TD*%
%TA.AperFunction,Conductor*%
%ADD13C,0.500000*%
%TD*%
%TA.AperFunction,Conductor*%
%ADD14C,0.250000*%
%TD*%
G04 APERTURE END LIST*
D10*
%TO.P,REF\u002A\u002A,1*%
%TO.N,N/C*%
X144551400Y-128955800D03*
%TD*%
%TO.P,REF\u002A\u002A,1*%
%TO.N,N/C*%
X144627600Y-100787200D03*
%TD*%
D11*
%TO.P,U1,1,1*%
%TO.N,Net-(C1-Pad2)*%
X137668000Y-107950000D03*
%TO.P,U1,2,2*%
%TO.N,GND*%
X142748000Y-107950000D03*
%TD*%
D10*
%TO.P,REF\u002A\u002A,1*%
%TO.N,N/C*%
X102031800Y-100761800D03*
%TD*%
%TO.P,REF\u002A\u002A,1*%
%TO.N,N/C*%
X102082600Y-128854200D03*
%TD*%
D11*
%TO.P,U2,1,1*%
%TO.N,Net-(R3-Pad2)*%
X113741200Y-102895400D03*
%TO.P,U2,2,2*%
%TO.N,GND*%
X108661200Y-102895400D03*
%TD*%
D12*
%TO.N,Net-(C1-Pad2)*%
X116332000Y-125222000D03*
X135280400Y-115570000D03*
%TO.N,Net-(C2-Pad1)*%
X128955800Y-114427000D03*
X139344400Y-113487200D03*
%TO.N,Net-(C3-Pad1)*%
X122504200Y-124637800D03*
X126085600Y-114782600D03*
%TO.N,Net-(C5-Pad1)*%
X126619000Y-126085600D03*
X122072400Y-109880400D03*
%TO.N,Net-(D1-Pad1)*%
X122021600Y-119202200D03*
X123901200Y-121716800D03*
%TD*%
D13*
%TO.N,Net-(C1-Pad2)*%
X130886200Y-118948200D02*
X134264400Y-115570000D01*
X119456200Y-129667000D02*
X128397000Y-129667000D01*
X116332000Y-125222000D02*
X116332000Y-126390400D01*
X134264400Y-115570000D02*
X135280400Y-115570000D01*
X128397000Y-129667000D02*
X130886200Y-127177800D01*
X116306600Y-126415800D02*
X116306600Y-126517400D01*
X116306600Y-126517400D02*
X119456200Y-129667000D01*
X116332000Y-126390400D02*
X116306600Y-126415800D01*
X130886200Y-127177800D02*
X130886200Y-118948200D01*
D14*
%TO.N,Net-(C2-Pad1)*%
X138404600Y-112547400D02*
X139344400Y-113487200D01*
X130835400Y-112547400D02*
X135940800Y-112547400D01*
X128955800Y-114427000D02*
X130835400Y-112547400D01*
X135940800Y-112547400D02*
X138404600Y-112547400D01*
D13*
%TO.N,Net-(C3-Pad1)*%
X126085600Y-114782600D02*
X127736600Y-116433600D01*
X127736600Y-116433600D02*
X127736600Y-116916200D01*
X127736600Y-121285000D02*
X124764800Y-124256800D01*
X124383800Y-124637800D02*
X122504200Y-124637800D01*
X127736600Y-116916200D02*
X127736600Y-121285000D01*
X124764800Y-124256800D02*
X124383800Y-124637800D01*
%TO.N,Net-(C5-Pad1)*%
X118999000Y-125095000D02*
X121183400Y-127279400D01*
X125425200Y-127279400D02*
X126619000Y-126085600D01*
X122072400Y-109880400D02*
X118999000Y-112953800D01*
X121183400Y-127279400D02*
X124968000Y-127279400D01*
X124968000Y-127279400D02*
X125425200Y-127279400D01*
X118999000Y-112953800D02*
X118999000Y-125095000D01*
D14*
%TO.N,Net-(D1-Pad1)*%
X123901200Y-121081800D02*
X123901200Y-121716800D01*
X122021600Y-119202200D02*
X123901200Y-121081800D01*
%TD*%
%TA.AperFunction,Conductor*%
%TO.N,GND*%
G36*
X143778320Y-98318502D02*
G01*
X143824813Y-98372158D01*
X143834917Y-98442432D01*
X143805423Y-98507012D01*
X143756583Y-98541652D01*
X143603757Y-98602160D01*
X143603752Y-98602162D01*
X143600083Y-98603615D01*
X143596615Y-98605521D01*
X143596614Y-98605522D01*
X143384185Y-98722307D01*
X143334510Y-98749616D01*
X143089329Y-98927750D01*
X142868408Y-99135208D01*
X142733670Y-99298079D01*
X142696243Y-99343320D01*
X142675230Y-99368720D01*
X142512842Y-99624602D01*
X142511155Y-99628188D01*
X142393356Y-99878525D01*
X142383806Y-99898819D01*
X142290155Y-100187046D01*
X142233367Y-100484738D01*
X142214338Y-100787200D01*
X142233367Y-101089662D01*
X142290155Y-101387354D01*
X142307596Y-101441031D01*
X142378172Y-101658240D01*
X142383806Y-101675581D01*
X142512842Y-101949798D01*
X142675230Y-102205680D01*
X142868408Y-102439192D01*
X143089329Y-102646650D01*
X143092531Y-102648977D01*
X143092533Y-102648978D01*
X143095927Y-102651444D01*
X143334510Y-102824784D01*
X143337979Y-102826691D01*
X143337982Y-102826693D01*
X143596614Y-102968878D01*
X143600083Y-102970785D01*
X143603752Y-102972238D01*
X143603757Y-102972240D01*
X143878191Y-103080896D01*
X143881861Y-103082349D01*
X144175400Y-103157716D01*
X144476070Y-103195700D01*
X144779130Y-103195700D01*
X145079800Y-103157716D01*
X145373339Y-103082349D01*
X145377009Y-103080896D01*
X145651443Y-102972240D01*
X145651448Y-102972238D01*
X145655117Y-102970785D01*
X145658586Y-102968878D01*
X145917218Y-102826693D01*
X145917221Y-102826691D01*
X145920690Y-102824784D01*
X146159273Y-102651444D01*
X146162667Y-102648978D01*
X146162669Y-102648977D01*
X146165871Y-102646650D01*
X146386792Y-102439192D01*
X146579970Y-102205680D01*
X146731515Y-101966884D01*
X146784904Y-101920085D01*
X146855119Y-101909580D01*
X146919867Y-101938704D01*
X146958591Y-101998210D01*
X146963900Y-102034398D01*
X146963900Y-127862246D01*
X146943898Y-127930367D01*
X146890242Y-127976860D01*
X146819968Y-127986964D01*
X146755388Y-127957470D01*
X146723892Y-127915894D01*
X146709310Y-127884905D01*
X146666158Y-127793202D01*
X146503770Y-127537320D01*
X146480363Y-127509025D01*
X146426562Y-127443992D01*
X146310592Y-127303808D01*
X146089671Y-127096350D01*
X145844490Y-126918216D01*
X145774158Y-126879550D01*
X145582386Y-126774122D01*
X145582385Y-126774121D01*
X145578917Y-126772215D01*
X145575248Y-126770762D01*
X145575243Y-126770760D01*
X145300809Y-126662104D01*
X145300808Y-126662104D01*
X145297139Y-126660651D01*
X145003600Y-126585284D01*
X144702930Y-126547300D01*
X144399870Y-126547300D01*
X144099200Y-126585284D01*
X143805661Y-126660651D01*
X143801992Y-126662104D01*
X143801991Y-126662104D01*
X143527557Y-126770760D01*
X143527552Y-126770762D01*
X143523883Y-126772215D01*
X143520415Y-126774121D01*
X143520414Y-126774122D01*
X143328643Y-126879550D01*
X143258310Y-126918216D01*
X143013129Y-127096350D01*
X142792208Y-127303808D01*
X142676238Y-127443992D01*
X142622438Y-127509025D01*
X142599030Y-127537320D01*
X142436642Y-127793202D01*
X142376304Y-127921428D01*
X142320490Y-128040040D01*
X142307606Y-128067419D01*
X142213955Y-128355646D01*
X142157167Y-128653338D01*
X142138138Y-128955800D01*
X142157167Y-129258262D01*
X142213955Y-129555954D01*
X142307606Y-129844181D01*
X142309293Y-129847767D01*
X142309295Y-129847771D01*
X142353911Y-129942585D01*
X142436642Y-130118398D01*
X142438766Y-130121744D01*
X142438766Y-130121745D01*
X142464728Y-130162655D01*
X142599030Y-130374280D01*
X142601549Y-130377325D01*
X142601552Y-130377329D01*
X142628731Y-130410182D01*
X142792208Y-130607792D01*
X143013129Y-130815250D01*
X143258310Y-130993384D01*
X143261779Y-130995291D01*
X143261782Y-130995293D01*
X143341721Y-131039240D01*
X143523883Y-131139385D01*
X143527552Y-131140838D01*
X143527557Y-131140840D01*
X143736916Y-131223731D01*
X143805661Y-131250949D01*
X144099200Y-131326316D01*
X144399870Y-131364300D01*
X144702930Y-131364300D01*
X145003600Y-131326316D01*
X145297139Y-131250949D01*
X145365884Y-131223731D01*
X145575243Y-131140840D01*
X145575248Y-131140838D01*
X145578917Y-131139385D01*
X145761079Y-131039240D01*
X145841018Y-130995293D01*
X145841021Y-130995291D01*
X145844490Y-130993384D01*
X146089671Y-130815250D01*
X146310592Y-130607792D01*
X146474069Y-130410182D01*
X146501248Y-130377329D01*
X146501251Y-130377325D01*
X146503770Y-130374280D01*
X146638072Y-130162655D01*
X146664034Y-130121745D01*
X146664034Y-130121744D01*
X146666158Y-130118398D01*
X146723892Y-129995706D01*
X146770994Y-129942585D01*
X146839339Y-129923362D01*
X146907227Y-129944141D01*
X146953104Y-129998324D01*
X146963900Y-130049354D01*
X146963900Y-131597900D01*
X146943898Y-131666021D01*
X146890242Y-131712514D01*
X146837900Y-131723900D01*
X99669100Y-131723900D01*
X99600979Y-131703898D01*
X99554486Y-131650242D01*
X99543100Y-131597900D01*
X99543100Y-129628024D01*
X99563102Y-129559903D01*
X99616758Y-129513410D01*
X99687032Y-129503306D01*
X99751612Y-129532800D01*
X99788933Y-129589088D01*
X99838806Y-129742581D01*
X99967842Y-130016798D01*
X100130230Y-130272680D01*
X100323408Y-130506192D01*
X100544329Y-130713650D01*
X100789510Y-130891784D01*
X100792979Y-130893691D01*
X100792982Y-130893693D01*
X100974318Y-130993384D01*
X101055083Y-131037785D01*
X101058752Y-131039238D01*
X101058757Y-131039240D01*
X101306878Y-131137478D01*
X101336861Y-131149349D01*
X101630400Y-131224716D01*
X101931070Y-131262700D01*
X102234130Y-131262700D01*
X102534800Y-131224716D01*
X102828339Y-131149349D01*
X102858322Y-131137478D01*
X103106443Y-131039240D01*
X103106448Y-131039238D01*
X103110117Y-131037785D01*
X103190882Y-130993384D01*
X103372218Y-130893693D01*
X103372221Y-130893691D01*
X103375690Y-130891784D01*
X103620871Y-130713650D01*
X103841792Y-130506192D01*
X104034970Y-130272680D01*
X104197358Y-130016798D01*
X104326394Y-129742581D01*
X104420045Y-129454354D01*
X104476833Y-129156662D01*
X104495862Y-128854200D01*
X104476833Y-128551738D01*
X104420045Y-128254046D01*
X104350280Y-128039333D01*
X104327620Y-127969592D01*
X104327620Y-127969591D01*
X104326394Y-127965819D01*
X104324113Y-127960970D01*
X104250700Y-127804960D01*
X104197358Y-127691602D01*
X104034970Y-127435720D01*
X103841792Y-127202208D01*
X103620871Y-126994750D01*
X103609526Y-126986507D01*
X103561630Y-126951709D01*
X103375690Y-126816616D01*
X103298395Y-126774122D01*
X103113586Y-126672522D01*
X103113585Y-126672521D01*
X103110117Y-126670615D01*
X103106448Y-126669162D01*
X103106443Y-126669160D01*
X102832009Y-126560504D01*
X102832008Y-126560504D01*
X102828339Y-126559051D01*
X102534800Y-126483684D01*
X102234130Y-126445700D01*
X101931070Y-126445700D01*
X101630400Y-126483684D01*
X101336861Y-126559051D01*
X101333192Y-126560504D01*
X101333191Y-126560504D01*
X101058757Y-126669160D01*
X101058752Y-126669162D01*
X101055083Y-126670615D01*
X101051615Y-126672521D01*
X101051614Y-126672522D01*
X100866806Y-126774122D01*
X100789510Y-126816616D01*
X100603570Y-126951709D01*
X100555675Y-126986507D01*
X100544329Y-126994750D01*
X100323408Y-127202208D01*
X100130230Y-127435720D01*
X99967842Y-127691602D01*
X99914500Y-127804960D01*
X99841088Y-127960970D01*
X99838806Y-127965819D01*
X99837580Y-127969591D01*
X99837580Y-127969592D01*
X99819859Y-128024133D01*
X99806961Y-128063829D01*
X99788933Y-128119312D01*
X99748860Y-128177918D01*
X99683463Y-128205555D01*
X99613506Y-128193448D01*
X99561200Y-128145442D01*
X99543100Y-128080376D01*
X99543100Y-125222000D01*
X115418496Y-125222000D01*
X115419186Y-125228565D01*
X115427930Y-125311755D01*
X115438458Y-125411928D01*
X115497473Y-125593556D01*
X115500776Y-125599278D01*
X115500777Y-125599279D01*
X115556619Y-125695999D01*
X115573500Y-125758999D01*
X115573500Y-126202543D01*
X115570860Y-126228201D01*
X115567114Y-126246211D01*
X115566144Y-126250496D01*
X115548792Y-126321410D01*
X115548100Y-126332564D01*
X115548064Y-126332562D01*
X115547825Y-126336555D01*
X115547451Y-126340747D01*
X115545960Y-126347915D01*
X115546158Y-126355232D01*
X115548054Y-126425321D01*
X115548100Y-126428728D01*
X115548100Y-126450330D01*
X115546667Y-126469280D01*
X115543401Y-126490749D01*
X115543994Y-126498041D01*
X115543994Y-126498044D01*
X115547685Y-126543418D01*
X115548100Y-126553633D01*
X115548100Y-126561693D01*
X115548525Y-126565337D01*
X115551389Y-126589907D01*
X115551822Y-126594282D01*
X115557141Y-126659670D01*
X115557740Y-126667037D01*
X115559996Y-126674001D01*
X115561187Y-126679960D01*
X115562571Y-126685815D01*
X115563418Y-126693081D01*
X115588335Y-126761727D01*
X115589752Y-126765855D01*
X115612249Y-126835299D01*
X115616045Y-126841554D01*
X115618551Y-126847028D01*
X115621270Y-126852458D01*
X115623767Y-126859337D01*
X115627780Y-126865457D01*
X115627780Y-126865458D01*
X115663786Y-126920376D01*
X115666123Y-126924080D01*
X115704005Y-126986507D01*
X115707721Y-126990715D01*
X115707722Y-126990716D01*
X115711403Y-126994884D01*
X115711376Y-126994908D01*
X115714029Y-126997900D01*
X115716732Y-127001133D01*
X115720744Y-127007252D01*
X115726056Y-127012284D01*
X115776983Y-127060528D01*
X115779425Y-127062906D01*
X118872430Y-130155911D01*
X118884816Y-130170323D01*
X118893349Y-130181918D01*
X118893354Y-130181923D01*
X118897692Y-130187818D01*
X118903270Y-130192557D01*
X118903273Y-130192560D01*
X118937968Y-130222035D01*
X118945484Y-130228965D01*
X118951179Y-130234660D01*
X118954061Y-130236940D01*
X118973451Y-130252281D01*
X118976855Y-130255072D01*
X119001170Y-130275729D01*
X119032485Y-130302333D01*
X119039001Y-130305661D01*
X119044050Y-130309028D01*
X119049179Y-130312195D01*
X119054916Y-130316734D01*
X119121075Y-130347655D01*
X119124969Y-130349558D01*
X119190008Y-130382769D01*
X119197116Y-130384508D01*
X119202759Y-130386607D01*
X119208522Y-130388524D01*
X119215150Y-130391622D01*
X119222312Y-130393112D01*
X119222313Y-130393112D01*
X119286612Y-130406486D01*
X119290896Y-130407456D01*
X119361810Y-130424808D01*
X119367412Y-130425156D01*
X119367415Y-130425156D01*
X119372964Y-130425500D01*
X119372962Y-130425536D01*
X119376955Y-130425775D01*
X119381147Y-130426149D01*
X119388315Y-130427640D01*
X119465720Y-130425546D01*
X119469128Y-130425500D01*
X128329930Y-130425500D01*
X128348880Y-130426933D01*
X128363115Y-130429099D01*
X128363119Y-130429099D01*
X128370349Y-130430199D01*
X128377641Y-130429606D01*
X128377644Y-130429606D01*
X128423018Y-130425915D01*
X128433233Y-130425500D01*
X128441293Y-130425500D01*
X128458680Y-130423473D01*
X128469507Y-130422211D01*
X128473882Y-130421778D01*
X128539339Y-130416454D01*
X128539342Y-130416453D01*
X128546637Y-130415860D01*
X128553601Y-130413604D01*
X128559560Y-130412413D01*
X128565415Y-130411029D01*
X128572681Y-130410182D01*
X128641327Y-130385265D01*
X128645455Y-130383848D01*
X128707936Y-130363607D01*
X128707938Y-130363606D01*
X128714899Y-130361351D01*
X128721154Y-130357555D01*
X128726628Y-130355049D01*
X128732058Y-130352330D01*
X128738937Y-130349833D01*
X128745058Y-130345820D01*
X128799976Y-130309814D01*
X128803680Y-130307477D01*
X128866107Y-130269595D01*
X128874484Y-130262197D01*
X128874508Y-130262224D01*
X128877500Y-130259571D01*
X128880733Y-130256868D01*
X128886852Y-130252856D01*
X128940128Y-130196617D01*
X128942506Y-130194175D01*
X131375111Y-127761570D01*
X131389523Y-127749184D01*
X131401118Y-127740651D01*
X131401123Y-127740646D01*
X131407018Y-127736308D01*
X131411757Y-127730730D01*
X131411760Y-127730727D01*
X131441235Y-127696032D01*
X131448165Y-127688516D01*
X131453860Y-127682821D01*
X131471481Y-127660549D01*
X131474272Y-127657145D01*
X131516791Y-127607097D01*
X131516792Y-127607095D01*
X131521533Y-127601515D01*
X131524861Y-127594999D01*
X131528228Y-127589950D01*
X131531395Y-127584821D01*
X131535934Y-127579084D01*
X131566855Y-127512925D01*
X131568761Y-127509025D01*
X131601969Y-127443992D01*
X131603708Y-127436884D01*
X131605807Y-127431241D01*
X131607724Y-127425478D01*
X131610822Y-127418850D01*
X131625687Y-127347383D01*
X131626657Y-127343099D01*
X131644008Y-127272190D01*
X131644700Y-127261036D01*
X131644736Y-127261038D01*
X131644975Y-127257045D01*
X131645349Y-127252853D01*
X131646840Y-127245685D01*
X131644746Y-127168279D01*
X131644700Y-127164872D01*
X131644700Y-119314571D01*
X131664702Y-119246450D01*
X131681605Y-119225476D01*
X134541676Y-116365405D01*
X134603988Y-116331379D01*
X134630771Y-116328500D01*
X134737813Y-116328500D01*
X134811872Y-116352563D01*
X134818302Y-116357235D01*
X134818309Y-116357239D01*
X134823648Y-116361118D01*
X134829676Y-116363802D01*
X134829678Y-116363803D01*
X134916549Y-116402480D01*
X134998112Y-116438794D01*
X135064739Y-116452956D01*
X135178456Y-116477128D01*
X135178461Y-116477128D01*
X135184913Y-116478500D01*
X135375887Y-116478500D01*
X135382339Y-116477128D01*
X135382344Y-116477128D01*
X135496061Y-116452956D01*
X135562688Y-116438794D01*
X135644251Y-116402480D01*
X135731122Y-116363803D01*
X135731124Y-116363802D01*
X135737152Y-116361118D01*
X135742497Y-116357235D01*
X135843345Y-116283964D01*
X135891653Y-116248866D01*
X135949033Y-116185139D01*
X136015021Y-116111852D01*
X136015022Y-116111851D01*
X136019440Y-116106944D01*
X136114927Y-115941556D01*
X136173942Y-115759928D01*
X136185632Y-115648709D01*
X136193214Y-115576565D01*
X136193904Y-115570000D01*
X136173942Y-115380072D01*
X136114927Y-115198444D01*
X136092662Y-115159879D01*
X136061477Y-115105866D01*
X136019440Y-115033056D01*
X135975400Y-114984144D01*
X135896075Y-114896045D01*
X135896074Y-114896044D01*
X135891653Y-114891134D01*
X135782047Y-114811500D01*
X135742494Y-114782763D01*
X135742493Y-114782762D01*
X135737152Y-114778882D01*
X135731124Y-114776198D01*
X135731122Y-114776197D01*
X135568719Y-114703891D01*
X135568718Y-114703891D01*
X135562688Y-114701206D01*
X135469287Y-114681353D01*
X135382344Y-114662872D01*
X135382339Y-114662872D01*
X135375887Y-114661500D01*
X135184913Y-114661500D01*
X135178461Y-114662872D01*
X135178456Y-114662872D01*
X135091513Y-114681353D01*
X134998112Y-114701206D01*
X134992082Y-114703891D01*
X134992081Y-114703891D01*
X134829678Y-114776197D01*
X134829676Y-114776198D01*
X134823648Y-114778882D01*
X134818309Y-114782761D01*
X134818302Y-114782765D01*
X134811872Y-114787437D01*
X134737813Y-114811500D01*
X134331469Y-114811500D01*
X134312521Y-114810067D01*
X134305180Y-114808950D01*
X134298283Y-114807901D01*
X134298281Y-114807901D01*
X134291051Y-114806801D01*
X134283759Y-114807394D01*
X134283756Y-114807394D01*
X134238382Y-114811085D01*
X134228167Y-114811500D01*
X134220107Y-114811500D01*
X134206817Y-114813049D01*
X134191893Y-114814789D01*
X134187518Y-114815222D01*
X134122061Y-114820546D01*
X134122058Y-114820547D01*
X134114763Y-114821140D01*
X134107799Y-114823396D01*
X134101840Y-114824587D01*
X134095985Y-114825971D01*
X134088719Y-114826818D01*
X134020073Y-114851735D01*
X134015945Y-114853152D01*
X133953464Y-114873393D01*
X133953462Y-114873394D01*
X133946501Y-114875649D01*
X133940246Y-114879445D01*
X133934772Y-114881951D01*
X133929342Y-114884670D01*
X133922463Y-114887167D01*
X133861416Y-114927191D01*
X133857727Y-114929518D01*
X133837535Y-114941771D01*
X133800093Y-114964491D01*
X133800088Y-114964495D01*
X133795292Y-114967405D01*
X133791085Y-114971121D01*
X133791082Y-114971123D01*
X133786945Y-114974777D01*
X133786916Y-114974803D01*
X133786893Y-114974777D01*
X133783903Y-114977426D01*
X133780664Y-114980134D01*
X133774548Y-114984144D01*
X133769521Y-114989451D01*
X133769517Y-114989454D01*
X133721272Y-115040383D01*
X133718894Y-115042825D01*
X130397289Y-118364430D01*
X130382877Y-118376816D01*
X130371282Y-118385349D01*
X130371277Y-118385354D01*
X130365382Y-118389692D01*
X130360643Y-118395270D01*
X130360640Y-118395273D01*
X130331165Y-118429968D01*
X130324235Y-118437484D01*
X130318540Y-118443179D01*
X130316260Y-118446061D01*
X130300919Y-118465451D01*
X130298128Y-118468855D01*
X130255609Y-118518903D01*
X130250867Y-118524485D01*
X130247539Y-118531001D01*
X130244172Y-118536050D01*
X130241005Y-118541179D01*
X130236466Y-118546916D01*
X130205545Y-118613075D01*
X130203642Y-118616969D01*
X130170431Y-118682008D01*
X130168692Y-118689116D01*
X130166593Y-118694759D01*
X130164676Y-118700522D01*
X130161578Y-118707150D01*
X130160088Y-118714312D01*
X130160088Y-118714313D01*
X130146714Y-118778612D01*
X130145744Y-118782896D01*
X130128392Y-118853810D01*
X130127700Y-118864964D01*
X130127664Y-118864962D01*
X130127425Y-118868955D01*
X130127051Y-118873147D01*
X130125560Y-118880315D01*
X130125758Y-118887632D01*
X130127654Y-118957721D01*
X130127700Y-118961128D01*
X130127700Y-126811429D01*
X130107698Y-126879550D01*
X130090795Y-126900524D01*
X128119724Y-128871595D01*
X128057412Y-128905621D01*
X128030629Y-128908500D01*
X119822571Y-128908500D01*
X119754450Y-128888498D01*
X119733476Y-128871595D01*
X117127405Y-126265524D01*
X117093379Y-126203212D01*
X117090500Y-126176429D01*
X117090500Y-125758999D01*
X117107381Y-125695999D01*
X117163223Y-125599279D01*
X117163224Y-125599278D01*
X117166527Y-125593556D01*
X117225542Y-125411928D01*
X117236071Y-125311755D01*
X117244814Y-125228565D01*
X117245504Y-125222000D01*
X117240537Y-125174744D01*
X117229355Y-125068349D01*
X118235801Y-125068349D01*
X118236394Y-125075641D01*
X118236394Y-125075644D01*
X118240085Y-125121018D01*
X118240500Y-125131233D01*
X118240500Y-125139293D01*
X118240925Y-125142937D01*
X118243789Y-125167507D01*
X118244222Y-125171882D01*
X118249493Y-125236678D01*
X118250140Y-125244637D01*
X118252396Y-125251601D01*
X118253587Y-125257560D01*
X118254971Y-125263415D01*
X118255818Y-125270681D01*
X118280735Y-125339327D01*
X118282152Y-125343455D01*
X118300438Y-125399899D01*
X118304649Y-125412899D01*
X118308445Y-125419154D01*
X118310951Y-125424628D01*
X118313670Y-125430058D01*
X118316167Y-125436937D01*
X118320180Y-125443057D01*
X118320180Y-125443058D01*
X118356186Y-125497976D01*
X118358523Y-125501680D01*
X118396405Y-125564107D01*
X118400121Y-125568315D01*
X118400122Y-125568316D01*
X118403803Y-125572484D01*
X118403776Y-125572508D01*
X118406429Y-125575500D01*
X118409132Y-125578733D01*
X118413144Y-125584852D01*
X118418456Y-125589884D01*
X118469383Y-125638128D01*
X118471825Y-125640506D01*
X120599630Y-127768311D01*
X120612016Y-127782723D01*
X120620549Y-127794318D01*
X120620554Y-127794323D01*
X120624892Y-127800218D01*
X120630470Y-127804957D01*
X120630473Y-127804960D01*
X120665168Y-127834435D01*
X120672684Y-127841365D01*
X120678379Y-127847060D01*
X120681261Y-127849340D01*
X120700651Y-127864681D01*
X120704055Y-127867472D01*
X120754103Y-127909991D01*
X120759685Y-127914733D01*
X120766201Y-127918061D01*
X120771250Y-127921428D01*
X120776379Y-127924595D01*
X120782116Y-127929134D01*
X120848275Y-127960055D01*
X120852169Y-127961958D01*
X120917208Y-127995169D01*
X120924316Y-127996908D01*
X120929959Y-127999007D01*
X120935722Y-128000924D01*
X120942350Y-128004022D01*
X120949512Y-128005512D01*
X120949513Y-128005512D01*
X121013812Y-128018886D01*
X121018096Y-128019856D01*
X121089010Y-128037208D01*
X121094612Y-128037556D01*
X121094615Y-128037556D01*
X121100164Y-128037900D01*
X121100162Y-128037936D01*
X121104155Y-128038175D01*
X121108347Y-128038549D01*
X121115515Y-128040040D01*
X121192920Y-128037946D01*
X121196328Y-128037900D01*
X125358130Y-128037900D01*
X125377080Y-128039333D01*
X125391315Y-128041499D01*
X125391319Y-128041499D01*
X125398549Y-128042599D01*
X125405841Y-128042006D01*
X125405844Y-128042006D01*
X125451218Y-128038315D01*
X125461433Y-128037900D01*
X125469493Y-128037900D01*
X125486880Y-128035873D01*
X125497707Y-128034611D01*
X125502082Y-128034178D01*
X125567539Y-128028854D01*
X125567542Y-128028853D01*
X125574837Y-128028260D01*
X125581801Y-128026004D01*
X125587760Y-128024813D01*
X125593615Y-128023429D01*
X125600881Y-128022582D01*
X125669527Y-127997665D01*
X125673655Y-127996248D01*
X125736136Y-127976007D01*
X125736138Y-127976006D01*
X125743099Y-127973751D01*
X125749354Y-127969955D01*
X125754828Y-127967449D01*
X125760258Y-127964730D01*
X125767137Y-127962233D01*
X125774402Y-127957470D01*
X125828176Y-127922214D01*
X125831880Y-127919877D01*
X125894307Y-127881995D01*
X125902684Y-127874597D01*
X125902708Y-127874624D01*
X125905700Y-127871971D01*
X125908933Y-127869268D01*
X125915052Y-127865256D01*
X125968328Y-127809017D01*
X125970706Y-127806575D01*
X126775331Y-127001950D01*
X126838228Y-126967799D01*
X126894824Y-126955769D01*
X126894833Y-126955766D01*
X126901288Y-126954394D01*
X126969341Y-126924095D01*
X127069722Y-126879403D01*
X127069724Y-126879402D01*
X127075752Y-126876718D01*
X127116997Y-126846752D01*
X127165614Y-126811429D01*
X127230253Y-126764466D01*
X127294528Y-126693081D01*
X127353621Y-126627452D01*
X127353622Y-126627451D01*
X127358040Y-126622544D01*
X127418387Y-126518021D01*
X127450223Y-126462879D01*
X127450224Y-126462878D01*
X127453527Y-126457156D01*
X127512542Y-126275528D01*
X127513594Y-126265524D01*
X127531814Y-126092165D01*
X127532504Y-126085600D01*
X127512542Y-125895672D01*
X127453527Y-125714044D01*
X127358040Y-125548656D01*
X127240583Y-125418206D01*
X127234675Y-125411645D01*
X127234674Y-125411644D01*
X127230253Y-125406734D01*
X127075752Y-125294482D01*
X127069724Y-125291798D01*
X127069722Y-125291797D01*
X126907319Y-125219491D01*
X126907318Y-125219491D01*
X126901288Y-125216806D01*
X126807888Y-125196953D01*
X126720944Y-125178472D01*
X126720939Y-125178472D01*
X126714487Y-125177100D01*
X126523513Y-125177100D01*
X126517061Y-125178472D01*
X126517056Y-125178472D01*
X126430112Y-125196953D01*
X126336712Y-125216806D01*
X126330682Y-125219491D01*
X126330681Y-125219491D01*
X126168278Y-125291797D01*
X126168276Y-125291798D01*
X126162248Y-125294482D01*
X126007747Y-125406734D01*
X126003326Y-125411644D01*
X126003325Y-125411645D01*
X125997418Y-125418206D01*
X125879960Y-125548656D01*
X125784473Y-125714044D01*
X125782431Y-125720329D01*
X125729613Y-125882885D01*
X125698875Y-125933044D01*
X125147924Y-126483995D01*
X125085612Y-126518021D01*
X125058829Y-126520900D01*
X121549771Y-126520900D01*
X121481650Y-126500898D01*
X121460676Y-126483995D01*
X119794405Y-124817724D01*
X119760379Y-124755412D01*
X119757500Y-124728629D01*
X119757500Y-124637800D01*
X121590696Y-124637800D01*
X121591386Y-124644365D01*
X121609607Y-124817724D01*
X121610658Y-124827728D01*
X121669673Y-125009356D01*
X121672976Y-125015078D01*
X121672977Y-125015079D01*
X121699556Y-125061115D01*
X121765160Y-125174744D01*
X121769578Y-125179651D01*
X121769579Y-125179652D01*
X121860486Y-125280614D01*
X121892947Y-125316666D01*
X121924092Y-125339294D01*
X122042104Y-125425035D01*
X122047448Y-125428918D01*
X122053476Y-125431602D01*
X122053478Y-125431603D01*
X122215881Y-125503909D01*
X122221912Y-125506594D01*
X122315312Y-125526447D01*
X122402256Y-125544928D01*
X122402261Y-125544928D01*
X122408713Y-125546300D01*
X122599687Y-125546300D01*
X122606139Y-125544928D01*
X122606144Y-125544928D01*
X122693088Y-125526447D01*
X122786488Y-125506594D01*
X122792519Y-125503909D01*
X122954922Y-125431603D01*
X122954924Y-125431602D01*
X122960952Y-125428918D01*
X122966291Y-125425039D01*
X122966298Y-125425035D01*
X122972728Y-125420363D01*
X123046787Y-125396300D01*
X124316730Y-125396300D01*
X124335680Y-125397733D01*
X124349915Y-125399899D01*
X124349919Y-125399899D01*
X124357149Y-125400999D01*
X124364441Y-125400406D01*
X124364444Y-125400406D01*
X124409818Y-125396715D01*
X124420033Y-125396300D01*
X124428093Y-125396300D01*
X124441383Y-125394751D01*
X124456307Y-125393011D01*
X124460682Y-125392578D01*
X124526139Y-125387254D01*
X124526142Y-125387253D01*
X124533437Y-125386660D01*
X124540401Y-125384404D01*
X124546360Y-125383213D01*
X124552215Y-125381829D01*
X124559481Y-125380982D01*
X124628127Y-125356065D01*
X124632255Y-125354648D01*
X124694736Y-125334407D01*
X124694738Y-125334406D01*
X124701699Y-125332151D01*
X124707954Y-125328355D01*
X124713428Y-125325849D01*
X124718858Y-125323130D01*
X124725737Y-125320633D01*
X124786776Y-125280614D01*
X124790480Y-125278277D01*
X124852907Y-125240395D01*
X124861284Y-125232997D01*
X124861308Y-125233024D01*
X124864300Y-125230371D01*
X124867533Y-125227668D01*
X124873652Y-125223656D01*
X124926928Y-125167417D01*
X124929306Y-125164975D01*
X128225511Y-121868770D01*
X128239923Y-121856384D01*
X128251518Y-121847851D01*
X128251523Y-121847846D01*
X128257418Y-121843508D01*
X128262157Y-121837930D01*
X128262160Y-121837927D01*
X128291635Y-121803232D01*
X128298565Y-121795716D01*
X128304260Y-121790021D01*
X128321881Y-121767749D01*
X128324672Y-121764345D01*
X128367191Y-121714297D01*
X128367192Y-121714295D01*
X128371933Y-121708715D01*
X128375261Y-121702199D01*
X128378628Y-121697150D01*
X128381795Y-121692021D01*
X128386334Y-121686284D01*
X128417255Y-121620125D01*
X128419161Y-121616225D01*
X128452369Y-121551192D01*
X128454108Y-121544083D01*
X128456204Y-121538449D01*
X128458123Y-121532679D01*
X128461222Y-121526050D01*
X128476091Y-121454565D01*
X128477061Y-121450282D01*
X128493073Y-121384844D01*
X128494408Y-121379390D01*
X128495100Y-121368236D01*
X128495135Y-121368238D01*
X128495375Y-121364266D01*
X128495752Y-121360045D01*
X128497241Y-121352885D01*
X128495146Y-121275458D01*
X128495100Y-121272050D01*
X128495100Y-116500670D01*
X128496533Y-116481720D01*
X128498699Y-116467485D01*
X128498699Y-116467481D01*
X128499799Y-116460251D01*
X128498166Y-116440166D01*
X128495515Y-116407582D01*
X128495100Y-116397367D01*
X128495100Y-116389307D01*
X128491809Y-116361080D01*
X128491378Y-116356721D01*
X128486054Y-116291262D01*
X128486053Y-116291259D01*
X128485460Y-116283964D01*
X128483204Y-116277000D01*
X128482017Y-116271061D01*
X128480630Y-116265190D01*
X128479782Y-116257919D01*
X128477286Y-116251043D01*
X128477284Y-116251034D01*
X128454875Y-116189302D01*
X128453465Y-116185198D01*
X128430952Y-116115701D01*
X128427156Y-116109446D01*
X128424657Y-116103987D01*
X128421929Y-116098539D01*
X128419433Y-116091663D01*
X128379405Y-116030610D01*
X128377081Y-116026927D01*
X128342100Y-115969280D01*
X128342099Y-115969279D01*
X128339195Y-115964493D01*
X128331798Y-115956117D01*
X128331825Y-115956093D01*
X128329170Y-115953099D01*
X128326468Y-115949868D01*
X128322456Y-115943748D01*
X128266217Y-115890472D01*
X128263775Y-115888094D01*
X127005725Y-114630044D01*
X126974987Y-114579885D01*
X126927445Y-114433565D01*
X126925312Y-114427000D01*
X128042296Y-114427000D01*
X128042986Y-114433565D01*
X128059709Y-114592672D01*
X128062258Y-114616928D01*
X128121273Y-114798556D01*
X128124576Y-114804278D01*
X128124577Y-114804279D01*
X128151970Y-114851724D01*
X128216760Y-114963944D01*
X128344547Y-115105866D01*
X128402362Y-115147871D01*
X128480620Y-115204729D01*
X128499048Y-115218118D01*
X128505076Y-115220802D01*
X128505078Y-115220803D01*
X128667481Y-115293109D01*
X128673512Y-115295794D01*
X128766913Y-115315647D01*
X128853856Y-115334128D01*
X128853861Y-115334128D01*
X128860313Y-115335500D01*
X129051287Y-115335500D01*
X129057739Y-115334128D01*
X129057744Y-115334128D01*
X129144687Y-115315647D01*
X129238088Y-115295794D01*
X129244119Y-115293109D01*
X129406522Y-115220803D01*
X129406524Y-115220802D01*
X129412552Y-115218118D01*
X129430981Y-115204729D01*
X129509238Y-115147871D01*
X129567053Y-115105866D01*
X129694840Y-114963944D01*
X129759630Y-114851724D01*
X129787023Y-114804279D01*
X129787024Y-114804278D01*
X129790327Y-114798556D01*
X129849342Y-114616928D01*
X129851892Y-114592672D01*
X129866707Y-114451707D01*
X129893720Y-114386050D01*
X129902922Y-114375782D01*
X131060900Y-113217805D01*
X131123212Y-113183779D01*
X131149995Y-113180900D01*
X138090006Y-113180900D01*
X138158127Y-113200902D01*
X138179101Y-113217805D01*
X138397278Y-113435982D01*
X138431304Y-113498294D01*
X138433492Y-113511903D01*
X138450858Y-113677128D01*
X138509873Y-113858756D01*
X138605360Y-114024144D01*
X138609778Y-114029051D01*
X138609779Y-114029052D01*
X138673527Y-114099851D01*
X138733147Y-114166066D01*
X138887648Y-114278318D01*
X138893676Y-114281002D01*
X138893678Y-114281003D01*
X139056081Y-114353309D01*
X139062112Y-114355994D01*
X139155207Y-114375782D01*
X139242456Y-114394328D01*
X139242461Y-114394328D01*
X139248913Y-114395700D01*
X139439887Y-114395700D01*
X139446339Y-114394328D01*
X139446344Y-114394328D01*
X139533593Y-114375782D01*
X139626688Y-114355994D01*
X139632719Y-114353309D01*
X139795122Y-114281003D01*
X139795124Y-114281002D01*
X139801152Y-114278318D01*
X139955653Y-114166066D01*
X140015273Y-114099851D01*
X140079021Y-114029052D01*
X140079022Y-114029051D01*
X140083440Y-114024144D01*
X140178927Y-113858756D01*
X140237942Y-113677128D01*
X140257904Y-113487200D01*
X140237942Y-113297272D01*
X140178927Y-113115644D01*
X140083440Y-112950256D01*
X140032096Y-112893232D01*
X139960075Y-112813245D01*
X139960074Y-112813244D01*
X139955653Y-112808334D01*
X139856557Y-112736336D01*
X139806494Y-112699963D01*
X139806493Y-112699962D01*
X139801152Y-112696082D01*
X139795124Y-112693398D01*
X139795122Y-112693397D01*
X139632719Y-112621091D01*
X139632718Y-112621091D01*
X139626688Y-112618406D01*
X139533287Y-112598553D01*
X139446344Y-112580072D01*
X139446339Y-112580072D01*
X139439887Y-112578700D01*
X139383995Y-112578700D01*
X139315874Y-112558698D01*
X139294900Y-112541795D01*
X138908252Y-112155147D01*
X138900712Y-112146861D01*
X138896600Y-112140382D01*
X138846948Y-112093756D01*
X138844107Y-112091002D01*
X138824370Y-112071265D01*
X138821173Y-112068785D01*
X138812151Y-112061080D01*
X138798722Y-112048469D01*
X138779921Y-112030814D01*
X138772975Y-112026995D01*
X138772972Y-112026993D01*
X138762166Y-112021052D01*
X138745647Y-112010201D01*
X138745183Y-112009841D01*
X138729641Y-111997786D01*
X138722372Y-111994641D01*
X138722368Y-111994638D01*
X138689063Y-111980226D01*
X138678413Y-111975009D01*
X138639660Y-111953705D01*
X138620037Y-111948667D01*
X138601334Y-111942263D01*
X138590020Y-111937367D01*
X138590019Y-111937367D01*
X138582745Y-111934219D01*
X138574922Y-111932980D01*
X138574912Y-111932977D01*
X138539076Y-111927301D01*
X138527456Y-111924895D01*
X138492311Y-111915872D01*
X138492310Y-111915872D01*
X138484630Y-111913900D01*
X138464376Y-111913900D01*
X138444665Y-111912349D01*
X138432486Y-111910420D01*
X138424657Y-111909180D01*
X138395386Y-111911947D01*
X138380639Y-111913341D01*
X138368781Y-111913900D01*
X130914167Y-111913900D01*
X130902984Y-111913373D01*
X130895491Y-111911698D01*
X130887565Y-111911947D01*
X130887564Y-111911947D01*
X130827401Y-111913838D01*
X130823443Y-111913900D01*
X130795544Y-111913900D01*
X130791554Y-111914404D01*
X130779720Y-111915336D01*
X130735511Y-111916726D01*
X130727897Y-111918938D01*
X130727892Y-111918939D01*
X130716059Y-111922377D01*
X130696696Y-111926388D01*
X130676603Y-111928926D01*
X130669236Y-111931843D01*
X130669231Y-111931844D01*
X130635492Y-111945202D01*
X130624265Y-111949046D01*
X130581807Y-111961382D01*
X130574981Y-111965419D01*
X130564372Y-111971693D01*
X130546624Y-111980388D01*
X130527783Y-111987848D01*
X130521367Y-111992510D01*
X130521366Y-111992510D01*
X130492013Y-112013836D01*
X130482093Y-112020352D01*
X130450865Y-112038820D01*
X130450862Y-112038822D01*
X130444038Y-112042858D01*
X130429717Y-112057179D01*
X130414684Y-112070019D01*
X130398293Y-112081928D01*
X130389617Y-112092416D01*
X130370102Y-112116005D01*
X130362112Y-112124784D01*
X129005300Y-113481595D01*
X128942988Y-113515621D01*
X128916205Y-113518500D01*
X128860313Y-113518500D01*
X128853861Y-113519872D01*
X128853856Y-113519872D01*
X128766912Y-113538353D01*
X128673512Y-113558206D01*
X128667482Y-113560891D01*
X128667481Y-113560891D01*
X128505078Y-113633197D01*
X128505076Y-113633198D01*
X128499048Y-113635882D01*
X128344547Y-113748134D01*
X128340126Y-113753044D01*
X128340125Y-113753045D01*
X128239790Y-113864479D01*
X128216760Y-113890056D01*
X128121273Y-114055444D01*
X128062258Y-114237072D01*
X128042296Y-114427000D01*
X126925312Y-114427000D01*
X126920127Y-114411044D01*
X126899769Y-114375782D01*
X126882914Y-114346590D01*
X126824640Y-114245656D01*
X126696853Y-114103734D01*
X126542352Y-113991482D01*
X126536324Y-113988798D01*
X126536322Y-113988797D01*
X126373919Y-113916491D01*
X126373918Y-113916491D01*
X126367888Y-113913806D01*
X126256154Y-113890056D01*
X126187544Y-113875472D01*
X126187539Y-113875472D01*
X126181087Y-113874100D01*
X125990113Y-113874100D01*
X125983661Y-113875472D01*
X125983656Y-113875472D01*
X125915046Y-113890056D01*
X125803312Y-113913806D01*
X125797282Y-113916491D01*
X125797281Y-113916491D01*
X125634878Y-113988797D01*
X125634876Y-113988798D01*
X125628848Y-113991482D01*
X125474347Y-114103734D01*
X125346560Y-114245656D01*
X125288286Y-114346590D01*
X125271432Y-114375782D01*
X125251073Y-114411044D01*
X125192058Y-114592672D01*
X125191368Y-114599233D01*
X125191368Y-114599235D01*
X125172786Y-114776035D01*
X125172096Y-114782600D01*
X125172786Y-114789165D01*
X125187539Y-114929528D01*
X125192058Y-114972528D01*
X125251073Y-115154156D01*
X125254376Y-115159878D01*
X125254377Y-115159879D01*
X125276643Y-115198444D01*
X125346560Y-115319544D01*
X125350978Y-115324451D01*
X125350979Y-115324452D01*
X125406969Y-115386635D01*
X125474347Y-115461466D01*
X125573443Y-115533464D01*
X125614695Y-115563435D01*
X125628848Y-115573718D01*
X125634876Y-115576402D01*
X125634878Y-115576403D01*
X125635242Y-115576565D01*
X125803312Y-115651394D01*
X125809767Y-115652766D01*
X125809776Y-115652769D01*
X125866372Y-115664799D01*
X125929269Y-115698950D01*
X126941195Y-116710876D01*
X126975221Y-116773188D01*
X126978100Y-116799971D01*
X126978100Y-120918629D01*
X126958098Y-120986750D01*
X126941195Y-121007724D01*
X124106524Y-123842395D01*
X124044212Y-123876421D01*
X124017429Y-123879300D01*
X123046787Y-123879300D01*
X122972728Y-123855237D01*
X122966298Y-123850565D01*
X122966291Y-123850561D01*
X122960952Y-123846682D01*
X122954924Y-123843998D01*
X122954922Y-123843997D01*
X122792519Y-123771691D01*
X122792518Y-123771691D01*
X122786488Y-123769006D01*
X122693087Y-123749153D01*
X122606144Y-123730672D01*
X122606139Y-123730672D01*
X122599687Y-123729300D01*
X122408713Y-123729300D01*
X122402261Y-123730672D01*
X122402256Y-123730672D01*
X122315313Y-123749153D01*
X122221912Y-123769006D01*
X122215882Y-123771691D01*
X122215881Y-123771691D01*
X122053478Y-123843997D01*
X122053476Y-123843998D01*
X122047448Y-123846682D01*
X122042107Y-123850562D01*
X122042106Y-123850563D01*
X122035673Y-123855237D01*
X121892947Y-123958934D01*
X121765160Y-124100856D01*
X121669673Y-124266244D01*
X121610658Y-124447872D01*
X121609968Y-124454433D01*
X121609968Y-124454435D01*
X121591386Y-124631235D01*
X121590696Y-124637800D01*
X119757500Y-124637800D01*
X119757500Y-119202200D01*
X121108096Y-119202200D01*
X121108786Y-119208765D01*
X121119907Y-119314571D01*
X121128058Y-119392128D01*
X121187073Y-119573756D01*
X121282560Y-119739144D01*
X121410347Y-119881066D01*
X121564848Y-119993318D01*
X121570876Y-119996002D01*
X121570878Y-119996003D01*
X121733281Y-120068309D01*
X121739312Y-120070994D01*
X121832713Y-120090847D01*
X121919656Y-120109328D01*
X121919661Y-120109328D01*
X121926113Y-120110700D01*
X121982006Y-120110700D01*
X122050127Y-120130702D01*
X122071101Y-120147605D01*
X123072269Y-121148774D01*
X123106295Y-121211086D01*
X123101230Y-121281902D01*
X123092294Y-121300867D01*
X123066673Y-121345244D01*
X123007658Y-121526872D01*
X123006968Y-121533433D01*
X123006968Y-121533435D01*
X123006441Y-121538449D01*
X122987696Y-121716800D01*
X122988386Y-121723365D01*
X123003669Y-121868770D01*
X123007658Y-121906728D01*
X123066673Y-122088356D01*
X123162160Y-122253744D01*
X123289947Y-122395666D01*
X123444448Y-122507918D01*
X123450476Y-122510602D01*
X123450478Y-122510603D01*
X123612881Y-122582909D01*
X123618912Y-122585594D01*
X123712312Y-122605447D01*
X123799256Y-122623928D01*
X123799261Y-122623928D01*
X123805713Y-122625300D01*
X123996687Y-122625300D01*
X124003139Y-122623928D01*
X124003144Y-122623928D01*
X124090088Y-122605447D01*
X124183488Y-122585594D01*
X124189519Y-122582909D01*
X124351922Y-122510603D01*
X124351924Y-122510602D01*
X124357952Y-122507918D01*
X124512453Y-122395666D01*
X124640240Y-122253744D01*
X124735727Y-122088356D01*
X124794742Y-121906728D01*
X124798732Y-121868770D01*
X124814014Y-121723365D01*
X124814704Y-121716800D01*
X124795959Y-121538449D01*
X124795432Y-121533435D01*
X124795432Y-121533433D01*
X124794742Y-121526872D01*
X124735727Y-121345244D01*
X124640240Y-121179856D01*
X124565254Y-121096575D01*
X124534537Y-121032568D01*
X124532953Y-121016226D01*
X124532123Y-120989836D01*
X124531874Y-120981911D01*
X124529662Y-120974297D01*
X124529661Y-120974292D01*
X124526223Y-120962459D01*
X124522212Y-120943095D01*
X124520667Y-120930864D01*
X124519674Y-120923003D01*
X124516757Y-120915636D01*
X124516756Y-120915631D01*
X124503398Y-120881892D01*
X124499554Y-120870665D01*
X124489430Y-120835822D01*
X124487218Y-120828207D01*
X124476907Y-120810772D01*
X124468212Y-120793024D01*
X124460752Y-120774183D01*
X124434764Y-120738413D01*
X124428248Y-120728493D01*
X124409780Y-120697265D01*
X124409778Y-120697262D01*
X124405742Y-120690438D01*
X124391421Y-120676117D01*
X124378580Y-120661083D01*
X124371331Y-120651106D01*
X124366672Y-120644693D01*
X124332595Y-120616502D01*
X124323816Y-120608512D01*
X122968722Y-119253417D01*
X122934696Y-119191105D01*
X122932507Y-119177492D01*
X122915832Y-119018835D01*
X122915832Y-119018833D01*
X122915142Y-119012272D01*
X122856127Y-118830644D01*
X122760640Y-118665256D01*
X122660052Y-118553541D01*
X122637275Y-118528245D01*
X122637274Y-118528244D01*
X122632853Y-118523334D01*
X122522530Y-118443179D01*
X122483694Y-118414963D01*
X122483693Y-118414962D01*
X122478352Y-118411082D01*
X122472324Y-118408398D01*
X122472322Y-118408397D01*
X122309919Y-118336091D01*
X122309918Y-118336091D01*
X122303888Y-118333406D01*
X122210487Y-118313553D01*
X122123544Y-118295072D01*
X122123539Y-118295072D01*
X122117087Y-118293700D01*
X121926113Y-118293700D01*
X121919661Y-118295072D01*
X121919656Y-118295072D01*
X121832713Y-118313553D01*
X121739312Y-118333406D01*
X121733282Y-118336091D01*
X121733281Y-118336091D01*
X121570878Y-118408397D01*
X121570876Y-118408398D01*
X121564848Y-118411082D01*
X121559507Y-118414962D01*
X121559506Y-118414963D01*
X121520670Y-118443179D01*
X121410347Y-118523334D01*
X121405926Y-118528244D01*
X121405925Y-118528245D01*
X121383149Y-118553541D01*
X121282560Y-118665256D01*
X121187073Y-118830644D01*
X121128058Y-119012272D01*
X121108096Y-119202200D01*
X119757500Y-119202200D01*
X119757500Y-113320171D01*
X119777502Y-113252050D01*
X119794405Y-113231076D01*
X122228731Y-110796750D01*
X122291628Y-110762599D01*
X122348224Y-110750569D01*
X122348233Y-110750566D01*
X122354688Y-110749194D01*
X122360719Y-110746509D01*
X122523122Y-110674203D01*
X122523124Y-110674202D01*
X122529152Y-110671518D01*
X122683653Y-110559266D01*
X122811440Y-110417344D01*
X122906927Y-110251956D01*
X122965942Y-110070328D01*
X122985904Y-109880400D01*
X122965942Y-109690472D01*
X122906927Y-109508844D01*
X122811440Y-109343456D01*
X122683653Y-109201534D01*
X122529152Y-109089282D01*
X122523124Y-109086598D01*
X122523122Y-109086597D01*
X122360719Y-109014291D01*
X122360718Y-109014291D01*
X122354688Y-109011606D01*
X122261287Y-108991753D01*
X122174344Y-108973272D01*
X122174339Y-108973272D01*
X122167887Y-108971900D01*
X121976913Y-108971900D01*
X121970461Y-108973272D01*
X121970456Y-108973272D01*
X121883512Y-108991753D01*
X121790112Y-109011606D01*
X121784082Y-109014291D01*
X121784081Y-109014291D01*
X121621678Y-109086597D01*
X121621676Y-109086598D01*
X121615648Y-109089282D01*
X121461147Y-109201534D01*
X121333360Y-109343456D01*
X121237873Y-109508844D01*
X121235831Y-109515129D01*
X121183013Y-109677685D01*
X121152275Y-109727844D01*
X118510089Y-112370030D01*
X118495677Y-112382416D01*
X118484082Y-112390949D01*
X118484077Y-112390954D01*
X118478182Y-112395292D01*
X118473443Y-112400870D01*
X118473440Y-112400873D01*
X118443965Y-112435568D01*
X118437035Y-112443084D01*
X118431340Y-112448779D01*
X118429060Y-112451661D01*
X118413719Y-112471051D01*
X118410928Y-112474455D01*
X118368409Y-112524503D01*
X118363667Y-112530085D01*
X118360339Y-112536601D01*
X118356972Y-112541650D01*
X118353805Y-112546779D01*
X118349266Y-112552516D01*
X118318345Y-112618675D01*
X118316442Y-112622569D01*
X118283231Y-112687608D01*
X118281492Y-112694716D01*
X118279393Y-112700359D01*
X118277476Y-112706122D01*
X118274378Y-112712750D01*
X118272888Y-112719912D01*
X118272888Y-112719913D01*
X118259514Y-112784212D01*
X118258544Y-112788496D01*
X118241192Y-112859410D01*
X118240500Y-112870564D01*
X118240464Y-112870562D01*
X118240225Y-112874555D01*
X118239851Y-112878747D01*
X118238360Y-112885915D01*
X118238558Y-112893232D01*
X118240454Y-112963321D01*
X118240500Y-112966728D01*
X118240500Y-125027930D01*
X118239067Y-125046880D01*
X118235801Y-125068349D01*
X117229355Y-125068349D01*
X117226232Y-125038635D01*
X117226232Y-125038633D01*
X117225542Y-125032072D01*
X117166527Y-124850444D01*
X117157037Y-124834006D01*
X117074341Y-124690774D01*
X117071040Y-124685056D01*
X117022580Y-124631235D01*
X116947675Y-124548045D01*
X116947674Y-124548044D01*
X116943253Y-124543134D01*
X116788752Y-124430882D01*
X116782724Y-124428198D01*
X116782722Y-124428197D01*
X116620319Y-124355891D01*
X116620318Y-124355891D01*
X116614288Y-124353206D01*
X116520887Y-124333353D01*
X116433944Y-124314872D01*
X116433939Y-124314872D01*
X116427487Y-124313500D01*
X116236513Y-124313500D01*
X116230061Y-124314872D01*
X116230056Y-124314872D01*
X116143113Y-124333353D01*
X116049712Y-124353206D01*
X116043682Y-124355891D01*
X116043681Y-124355891D01*
X115881278Y-124428197D01*
X115881276Y-124428198D01*
X115875248Y-124430882D01*
X115720747Y-124543134D01*
X115716326Y-124548044D01*
X115716325Y-124548045D01*
X115641421Y-124631235D01*
X115592960Y-124685056D01*
X115589659Y-124690774D01*
X115506964Y-124834006D01*
X115497473Y-124850444D01*
X115438458Y-125032072D01*
X115437768Y-125038633D01*
X115437768Y-125038635D01*
X115423463Y-125174744D01*
X115418496Y-125222000D01*
X99543100Y-125222000D01*
X99543100Y-107950000D01*
X136138786Y-107950000D01*
X136157613Y-108189222D01*
X136158767Y-108194029D01*
X136158768Y-108194035D01*
X136194043Y-108340963D01*
X136213631Y-108422553D01*
X136305460Y-108644249D01*
X136430840Y-108848849D01*
X136586682Y-109031318D01*
X136769151Y-109187160D01*
X136973751Y-109312540D01*
X136978321Y-109314433D01*
X136978323Y-109314434D01*
X137190874Y-109402475D01*
X137195447Y-109404369D01*
X137277037Y-109423957D01*
X137423965Y-109459232D01*
X137423971Y-109459233D01*
X137428778Y-109460387D01*
X137668000Y-109479214D01*
X137907222Y-109460387D01*
X137912029Y-109459233D01*
X137912035Y-109459232D01*
X138058963Y-109423957D01*
X138140553Y-109404369D01*
X138145126Y-109402475D01*
X138357677Y-109314434D01*
X138357679Y-109314433D01*
X138362249Y-109312540D01*
X138555188Y-109194306D01*
X141868524Y-109194306D01*
X141874251Y-109201956D01*
X142049759Y-109309507D01*
X142058553Y-109313988D01*
X142271029Y-109401998D01*
X142280414Y-109405047D01*
X142504044Y-109458737D01*
X142513791Y-109460280D01*
X142743070Y-109478325D01*
X142752930Y-109478325D01*
X142982209Y-109460280D01*
X142991956Y-109458737D01*
X143215586Y-109405047D01*
X143224971Y-109401998D01*
X143437447Y-109313988D01*
X143446241Y-109309507D01*
X143618083Y-109204203D01*
X143627543Y-109193747D01*
X143623759Y-109184969D01*
X142760812Y-108322022D01*
X142746868Y-108314408D01*
X142745035Y-108314539D01*
X142738420Y-108318790D01*
X141875284Y-109181926D01*
X141868524Y-109194306D01*
X138555188Y-109194306D01*
X138566849Y-109187160D01*
X138749318Y-109031318D01*
X138905160Y-108848849D01*
X139030540Y-108644249D01*
X139122369Y-108422553D01*
X139141957Y-108340963D01*
X139177232Y-108194035D01*
X139177233Y-108194029D01*
X139178387Y-108189222D01*
X139196826Y-107954930D01*
X141219675Y-107954930D01*
X141237720Y-108184209D01*
X141239263Y-108193956D01*
X141292953Y-108417586D01*
X141296002Y-108426971D01*
X141384012Y-108639447D01*
X141388493Y-108648241D01*
X141493797Y-108820083D01*
X141504253Y-108829543D01*
X141513031Y-108825759D01*
X142375978Y-107962812D01*
X142382356Y-107951132D01*
X143112408Y-107951132D01*
X143112539Y-107952965D01*
X143116790Y-107959580D01*
X143979926Y-108822716D01*
X143992306Y-108829476D01*
X143999956Y-108823749D01*
X144107507Y-108648241D01*
X144111988Y-108639447D01*
X144199998Y-108426971D01*
X144203047Y-108417586D01*
X144256737Y-108193956D01*
X144258280Y-108184209D01*
X144276325Y-107954930D01*
X144276325Y-107945070D01*
X144258280Y-107715791D01*
X144256737Y-107706044D01*
X144203047Y-107482414D01*
X144199998Y-107473029D01*
X144111988Y-107260553D01*
X144107507Y-107251759D01*
X144002203Y-107079917D01*
X143991747Y-107070457D01*
X143982969Y-107074241D01*
X143120022Y-107937188D01*
X143112408Y-107951132D01*
X142382356Y-107951132D01*
X142383592Y-107948868D01*
X142383461Y-107947035D01*
X142379210Y-107940420D01*
X141516074Y-107077284D01*
X141503694Y-107070524D01*
X141496044Y-107076251D01*
X141388493Y-107251759D01*
X141384012Y-107260553D01*
X141296002Y-107473029D01*
X141292953Y-107482414D01*
X141239263Y-107706044D01*
X141237720Y-107715791D01*
X141219675Y-107945070D01*
X141219675Y-107954930D01*
X139196826Y-107954930D01*
X139197214Y-107950000D01*
X139178387Y-107710778D01*
X139177233Y-107705971D01*
X139177232Y-107705965D01*
X139123524Y-107482259D01*
X139122369Y-107477447D01*
X139030540Y-107255751D01*
X138905160Y-107051151D01*
X138749318Y-106868682D01*
X138566849Y-106712840D01*
X138556100Y-106706253D01*
X141868457Y-106706253D01*
X141872241Y-106715031D01*
X142735188Y-107577978D01*
X142749132Y-107585592D01*
X142750965Y-107585461D01*
X142757580Y-107581210D01*
X143620716Y-106718074D01*
X143627476Y-106705694D01*
X143621749Y-106698044D01*
X143446241Y-106590493D01*
X143437447Y-106586012D01*
X143224971Y-106498002D01*
X143215586Y-106494953D01*
X142991956Y-106441263D01*
X142982209Y-106439720D01*
X142752930Y-106421675D01*
X142743070Y-106421675D01*
X142513791Y-106439720D01*
X142504044Y-106441263D01*
X142280414Y-106494953D01*
X142271029Y-106498002D01*
X142058553Y-106586012D01*
X142049759Y-106590493D01*
X141877917Y-106695797D01*
X141868457Y-106706253D01*
X138556100Y-106706253D01*
X138362249Y-106587460D01*
X138357679Y-106585567D01*
X138357677Y-106585566D01*
X138145126Y-106497525D01*
X138145124Y-106497524D01*
X138140553Y-106495631D01*
X138058963Y-106476043D01*
X137912035Y-106440768D01*
X137912029Y-106440767D01*
X137907222Y-106439613D01*
X137668000Y-106420786D01*
X137428778Y-106439613D01*
X137423971Y-106440767D01*
X137423965Y-106440768D01*
X137277037Y-106476043D01*
X137195447Y-106495631D01*
X137190876Y-106497524D01*
X137190874Y-106497525D01*
X136978323Y-106585566D01*
X136978321Y-106585567D01*
X136973751Y-106587460D01*
X136769151Y-106712840D01*
X136586682Y-106868682D01*
X136430840Y-107051151D01*
X136305460Y-107255751D01*
X136213631Y-107477447D01*
X136212476Y-107482259D01*
X136158768Y-107705965D01*
X136158767Y-107705971D01*
X136157613Y-107710778D01*
X136138786Y-107950000D01*
X99543100Y-107950000D01*
X99543100Y-104139706D01*
X107781724Y-104139706D01*
X107787451Y-104147356D01*
X107962959Y-104254907D01*
X107971753Y-104259388D01*
X108184229Y-104347398D01*
X108193614Y-104350447D01*
X108417244Y-104404137D01*
X108426991Y-104405680D01*
X108656270Y-104423725D01*
X108666130Y-104423725D01*
X108895409Y-104405680D01*
X108905156Y-104404137D01*
X109128786Y-104350447D01*
X109138171Y-104347398D01*
X109350647Y-104259388D01*
X109359441Y-104254907D01*
X109531283Y-104149603D01*
X109540743Y-104139147D01*
X109536959Y-104130369D01*
X108674012Y-103267422D01*
X108660068Y-103259808D01*
X108658235Y-103259939D01*
X108651620Y-103264190D01*
X107788484Y-104127326D01*
X107781724Y-104139706D01*
X99543100Y-104139706D01*
X99543100Y-101691458D01*
X99563102Y-101623337D01*
X99616758Y-101576844D01*
X99687032Y-101566740D01*
X99751612Y-101596234D01*
X99786252Y-101645075D01*
X99786780Y-101646408D01*
X99788006Y-101650181D01*
X99917042Y-101924398D01*
X100079430Y-102180280D01*
X100081949Y-102183325D01*
X100081952Y-102183329D01*
X100102965Y-102208729D01*
X100272608Y-102413792D01*
X100493529Y-102621250D01*
X100738710Y-102799384D01*
X100742179Y-102801291D01*
X100742182Y-102801293D01*
X100922329Y-102900330D01*
X101004283Y-102945385D01*
X101007952Y-102946838D01*
X101007957Y-102946840D01*
X101282391Y-103055496D01*
X101286061Y-103056949D01*
X101579600Y-103132316D01*
X101880270Y-103170300D01*
X102183330Y-103170300D01*
X102484000Y-103132316D01*
X102777539Y-103056949D01*
X102781209Y-103055496D01*
X103055643Y-102946840D01*
X103055648Y-102946838D01*
X103059317Y-102945385D01*
X103141271Y-102900330D01*
X107132875Y-102900330D01*
X107150920Y-103129609D01*
X107152463Y-103139356D01*
X107206153Y-103362986D01*
X107209202Y-103372371D01*
X107297212Y-103584847D01*
X107301693Y-103593641D01*
X107406997Y-103765483D01*
X107417453Y-103774943D01*
X107426231Y-103771159D01*
X108289178Y-102908212D01*
X108295556Y-102896532D01*
X109025608Y-102896532D01*
X109025739Y-102898365D01*
X109029990Y-102904980D01*
X109893126Y-103768116D01*
X109905506Y-103774876D01*
X109913156Y-103769149D01*
X110020707Y-103593641D01*
X110025188Y-103584847D01*
X110113198Y-103372371D01*
X110116247Y-103362986D01*
X110169937Y-103139356D01*
X110171480Y-103129609D01*
X110189525Y-102900330D01*
X110189525Y-102895400D01*
X112211986Y-102895400D01*
X112230813Y-103134622D01*
X112231967Y-103139429D01*
X112231968Y-103139435D01*
X112267243Y-103286363D01*
X112286831Y-103367953D01*
X112378660Y-103589649D01*
X112504040Y-103794249D01*
X112659882Y-103976718D01*
X112842351Y-104132560D01*
X113046951Y-104257940D01*
X113051521Y-104259833D01*
X113051523Y-104259834D01*
X113264074Y-104347875D01*
X113268647Y-104349769D01*
X113350237Y-104369357D01*
X113497165Y-104404632D01*
X113497171Y-104404633D01*
X113501978Y-104405787D01*
X113741200Y-104424614D01*
X113980422Y-104405787D01*
X113985229Y-104404633D01*
X113985235Y-104404632D01*
X114132163Y-104369357D01*
X114213753Y-104349769D01*
X114218326Y-104347875D01*
X114430877Y-104259834D01*
X114430879Y-104259833D01*
X114435449Y-104257940D01*
X114640049Y-104132560D01*
X114822518Y-103976718D01*
X114978360Y-103794249D01*
X115103740Y-103589649D01*
X115195569Y-103367953D01*
X115215157Y-103286363D01*
X115250432Y-103139435D01*
X115250433Y-103139429D01*
X115251587Y-103134622D01*
X115270414Y-102895400D01*
X115251587Y-102656178D01*
X115250433Y-102651371D01*
X115250432Y-102651365D01*
X115196724Y-102427659D01*
X115195569Y-102422847D01*
X115192941Y-102416503D01*
X115105634Y-102205723D01*
X115105633Y-102205721D01*
X115103740Y-102201151D01*
X114978360Y-101996551D01*
X114938430Y-101949798D01*
X114825731Y-101817844D01*
X114822518Y-101814082D01*
X114640049Y-101658240D01*
X114435449Y-101532860D01*
X114430879Y-101530967D01*
X114430877Y-101530966D01*
X114218326Y-101442925D01*
X114218324Y-101442924D01*
X114213753Y-101441031D01*
X114132163Y-101421443D01*
X113985235Y-101386168D01*
X113985229Y-101386167D01*
X113980422Y-101385013D01*
X113741200Y-101366186D01*
X113501978Y-101385013D01*
X113497171Y-101386167D01*
X113497165Y-101386168D01*
X113350237Y-101421443D01*
X113268647Y-101441031D01*
X113264076Y-101442924D01*
X113264074Y-101442925D01*
X113051523Y-101530966D01*
X113051521Y-101530967D01*
X113046951Y-101532860D01*
X112842351Y-101658240D01*
X112659882Y-101814082D01*
X112656669Y-101817844D01*
X112543971Y-101949798D01*
X112504040Y-101996551D01*
X112378660Y-102201151D01*
X112376767Y-102205721D01*
X112376766Y-102205723D01*
X112289459Y-102416503D01*
X112286831Y-102422847D01*
X112285676Y-102427659D01*
X112231968Y-102651365D01*
X112231967Y-102651371D01*
X112230813Y-102656178D01*
X112211986Y-102895400D01*
X110189525Y-102895400D01*
X110189525Y-102890470D01*
X110171480Y-102661191D01*
X110169937Y-102651444D01*
X110116247Y-102427814D01*
X110113198Y-102418429D01*
X110025188Y-102205953D01*
X110020707Y-102197159D01*
X109915403Y-102025317D01*
X109904947Y-102015857D01*
X109896169Y-102019641D01*
X109033222Y-102882588D01*
X109025608Y-102896532D01*
X108295556Y-102896532D01*
X108296792Y-102894268D01*
X108296661Y-102892435D01*
X108292410Y-102885820D01*
X107429274Y-102022684D01*
X107416894Y-102015924D01*
X107409244Y-102021651D01*
X107301693Y-102197159D01*
X107297212Y-102205953D01*
X107209202Y-102418429D01*
X107206153Y-102427814D01*
X107152463Y-102651444D01*
X107150920Y-102661191D01*
X107132875Y-102890470D01*
X107132875Y-102900330D01*
X103141271Y-102900330D01*
X103321418Y-102801293D01*
X103321421Y-102801291D01*
X103324890Y-102799384D01*
X103570071Y-102621250D01*
X103790992Y-102413792D01*
X103960635Y-102208729D01*
X103981648Y-102183329D01*
X103981651Y-102183325D01*
X103984170Y-102180280D01*
X104146558Y-101924398D01*
X104256171Y-101691458D01*
X104273905Y-101653771D01*
X104273907Y-101653766D01*
X104274901Y-101651653D01*
X107781657Y-101651653D01*
X107785441Y-101660431D01*
X108648388Y-102523378D01*
X108662332Y-102530992D01*
X108664165Y-102530861D01*
X108670780Y-102526610D01*
X109533916Y-101663474D01*
X109540676Y-101651094D01*
X109534949Y-101643444D01*
X109359441Y-101535893D01*
X109350647Y-101531412D01*
X109138171Y-101443402D01*
X109128786Y-101440353D01*
X108905156Y-101386663D01*
X108895409Y-101385120D01*
X108666130Y-101367075D01*
X108656270Y-101367075D01*
X108426991Y-101385120D01*
X108417244Y-101386663D01*
X108193614Y-101440353D01*
X108184229Y-101443402D01*
X107971753Y-101531412D01*
X107962959Y-101535893D01*
X107791117Y-101641197D01*
X107781657Y-101651653D01*
X104274901Y-101651653D01*
X104275594Y-101650181D01*
X104369245Y-101361954D01*
X104426033Y-101064262D01*
X104445062Y-100761800D01*
X104426033Y-100459338D01*
X104369245Y-100161646D01*
X104275594Y-99873419D01*
X104146558Y-99599202D01*
X103984170Y-99343320D01*
X103790992Y-99109808D01*
X103570071Y-98902350D01*
X103324890Y-98724216D01*
X103102873Y-98602160D01*
X103062786Y-98580122D01*
X103062785Y-98580121D01*
X103059317Y-98578215D01*
X103055648Y-98576762D01*
X103055643Y-98576760D01*
X102966970Y-98541652D01*
X102910996Y-98497977D01*
X102887520Y-98430974D01*
X102903996Y-98361916D01*
X102955192Y-98312727D01*
X103013354Y-98298500D01*
X143710199Y-98298500D01*
X143778320Y-98318502D01*
G37*
%TD.AperFunction*%
%TD*%
M02*
