%TF.GenerationSoftware,KiCad,Pcbnew,(6.0.10)*%
%TF.CreationDate,2023-02-10T16:59:45+05:30*%
%TF.ProjectId,MpptDemoBoard,4d707074-4465-46d6-9f42-6f6172642e6b,rev?*%
%TF.SameCoordinates,Original*%
%TF.FileFunction,Drillmap*%
%TF.FilePolarity,Positive*%
%FSLAX45Y45*%
G04 Gerber Fmt 4.5, Leading zero omitted, Abs format (unit mm)*
G04 Created by KiCad (PCBNEW (6.0.10)) date 2023-02-10 16:59:45*
%MOMM*%
%LPD*%
G01*
G04 APERTURE LIST*
%ADD10C,0.100000*%
%ADD11C,0.200000*%
G04 APERTURE END LIST*
D10*
X9903460Y-9779000D02*
X14747240Y-9779000D01*
X14747240Y-9779000D02*
X14747240Y-13223240D01*
X14747240Y-13223240D02*
X9903460Y-13223240D01*
X9903460Y-13223240D02*
X9903460Y-9779000D01*
D11*
X10156079Y-13538716D02*
X10156079Y-13338716D01*
X10203698Y-13338716D01*
X10232270Y-13348240D01*
X10251317Y-13367288D01*
X10260841Y-13386335D01*
X10270365Y-13424430D01*
X10270365Y-13453002D01*
X10260841Y-13491097D01*
X10251317Y-13510145D01*
X10232270Y-13529192D01*
X10203698Y-13538716D01*
X10156079Y-13538716D01*
X10356079Y-13538716D02*
X10356079Y-13405383D01*
X10356079Y-13443478D02*
X10365603Y-13424430D01*
X10375127Y-13414907D01*
X10394174Y-13405383D01*
X10413222Y-13405383D01*
X10479889Y-13538716D02*
X10479889Y-13405383D01*
X10479889Y-13338716D02*
X10470365Y-13348240D01*
X10479889Y-13357764D01*
X10489412Y-13348240D01*
X10479889Y-13338716D01*
X10479889Y-13357764D01*
X10603698Y-13538716D02*
X10584650Y-13529192D01*
X10575127Y-13510145D01*
X10575127Y-13338716D01*
X10708460Y-13538716D02*
X10689412Y-13529192D01*
X10679889Y-13510145D01*
X10679889Y-13338716D01*
X10937031Y-13538716D02*
X10937031Y-13338716D01*
X11003698Y-13481573D01*
X11070365Y-13338716D01*
X11070365Y-13538716D01*
X11251317Y-13538716D02*
X11251317Y-13433954D01*
X11241793Y-13414907D01*
X11222746Y-13405383D01*
X11184650Y-13405383D01*
X11165603Y-13414907D01*
X11251317Y-13529192D02*
X11232269Y-13538716D01*
X11184650Y-13538716D01*
X11165603Y-13529192D01*
X11156079Y-13510145D01*
X11156079Y-13491097D01*
X11165603Y-13472049D01*
X11184650Y-13462526D01*
X11232269Y-13462526D01*
X11251317Y-13453002D01*
X11346555Y-13405383D02*
X11346555Y-13605383D01*
X11346555Y-13414907D02*
X11365603Y-13405383D01*
X11403698Y-13405383D01*
X11422746Y-13414907D01*
X11432269Y-13424430D01*
X11441793Y-13443478D01*
X11441793Y-13500621D01*
X11432269Y-13519668D01*
X11422746Y-13529192D01*
X11403698Y-13538716D01*
X11365603Y-13538716D01*
X11346555Y-13529192D01*
X11527508Y-13519668D02*
X11537031Y-13529192D01*
X11527508Y-13538716D01*
X11517984Y-13529192D01*
X11527508Y-13519668D01*
X11527508Y-13538716D01*
X11527508Y-13414907D02*
X11537031Y-13424430D01*
X11527508Y-13433954D01*
X11517984Y-13424430D01*
X11527508Y-13414907D01*
X11527508Y-13433954D01*
M02*
