%TF.GenerationSoftware,KiCad,Pcbnew,(6.0.10)*%
%TF.CreationDate,2023-02-10T15:19:30+05:30*%
%TF.ProjectId,MpptDemoBoard,4d707074-4465-46d6-9f42-6f6172642e6b,rev?*%
%TF.SameCoordinates,Original*%
%TF.FileFunction,Drillmap*%
%TF.FilePolarity,Positive*%
%FSLAX45Y45*%
G04 Gerber Fmt 4.5, Leading zero omitted, Abs format (unit mm)*
G04 Created by KiCad (PCBNEW (6.0.10)) date 2023-02-10 15:19:30*
%MOMM*%
%LPD*%
G01*
G04 APERTURE LIST*
%ADD10C,0.100000*%
%ADD11C,0.200000*%
%ADD12C,0.040000*%
%ADD13C,0.127000*%
%ADD14C,0.220000*%
G04 APERTURE END LIST*
D10*
X9903460Y-9779000D02*
X14747240Y-9779000D01*
X14747240Y-9779000D02*
X14747240Y-13223240D01*
X14747240Y-13223240D02*
X9903460Y-13223240D01*
X9903460Y-13223240D02*
X9903460Y-9779000D01*
D11*
D12*
X11613200Y-12502200D02*
X11653200Y-12542200D01*
X11653200Y-12502200D02*
X11613200Y-12542200D01*
X12182160Y-11900220D02*
X12222160Y-11940220D01*
X12222160Y-11900220D02*
X12182160Y-11940220D01*
X12187240Y-10968040D02*
X12227240Y-11008040D01*
X12227240Y-10968040D02*
X12187240Y-11008040D01*
X12230420Y-12443780D02*
X12270420Y-12483780D01*
X12270420Y-12443780D02*
X12230420Y-12483780D01*
X12370120Y-12151680D02*
X12410120Y-12191680D01*
X12410120Y-12151680D02*
X12370120Y-12191680D01*
X12588560Y-11458260D02*
X12628560Y-11498260D01*
X12628560Y-11458260D02*
X12588560Y-11498260D01*
X12641900Y-12588560D02*
X12681900Y-12628560D01*
X12681900Y-12588560D02*
X12641900Y-12628560D01*
X12875580Y-11422700D02*
X12915580Y-11462700D01*
X12915580Y-11422700D02*
X12875580Y-11462700D01*
X13508040Y-11537000D02*
X13548040Y-11577000D01*
X13548040Y-11537000D02*
X13508040Y-11577000D01*
X13914440Y-11328720D02*
X13954440Y-11368720D01*
X13954440Y-11328720D02*
X13914440Y-11368720D01*
D13*
X10929620Y-10289540D02*
G75*
G03*
X10929620Y-10289540I-63500J0D01*
G01*
X11437620Y-10289540D02*
G75*
G03*
X11437620Y-10289540I-63500J0D01*
G01*
X13830300Y-10795000D02*
G75*
G03*
X13830300Y-10795000I-63500J0D01*
G01*
X14338300Y-10795000D02*
G75*
G03*
X14338300Y-10795000I-63500J0D01*
G01*
D14*
X10203180Y-9966180D02*
X10203180Y-10186180D01*
X10093180Y-10076180D02*
X10313180Y-10076180D01*
X10208260Y-12775420D02*
X10208260Y-12995420D01*
X10098260Y-12885420D02*
X10318260Y-12885420D01*
X14455140Y-12785580D02*
X14455140Y-13005580D01*
X14345140Y-12895580D02*
X14565140Y-12895580D01*
X14462760Y-9968720D02*
X14462760Y-10188720D01*
X14352760Y-10078720D02*
X14572760Y-10078720D01*
D11*
X10156079Y-13538716D02*
X10156079Y-13338716D01*
X10203698Y-13338716D01*
X10232270Y-13348240D01*
X10251317Y-13367288D01*
X10260841Y-13386335D01*
X10270365Y-13424430D01*
X10270365Y-13453002D01*
X10260841Y-13491097D01*
X10251317Y-13510145D01*
X10232270Y-13529192D01*
X10203698Y-13538716D01*
X10156079Y-13538716D01*
X10356079Y-13538716D02*
X10356079Y-13405383D01*
X10356079Y-13443478D02*
X10365603Y-13424430D01*
X10375127Y-13414907D01*
X10394174Y-13405383D01*
X10413222Y-13405383D01*
X10479889Y-13538716D02*
X10479889Y-13405383D01*
X10479889Y-13338716D02*
X10470365Y-13348240D01*
X10479889Y-13357764D01*
X10489412Y-13348240D01*
X10479889Y-13338716D01*
X10479889Y-13357764D01*
X10603698Y-13538716D02*
X10584650Y-13529192D01*
X10575127Y-13510145D01*
X10575127Y-13338716D01*
X10708460Y-13538716D02*
X10689412Y-13529192D01*
X10679889Y-13510145D01*
X10679889Y-13338716D01*
X10937031Y-13538716D02*
X10937031Y-13338716D01*
X11003698Y-13481573D01*
X11070365Y-13338716D01*
X11070365Y-13538716D01*
X11251317Y-13538716D02*
X11251317Y-13433954D01*
X11241793Y-13414907D01*
X11222746Y-13405383D01*
X11184650Y-13405383D01*
X11165603Y-13414907D01*
X11251317Y-13529192D02*
X11232269Y-13538716D01*
X11184650Y-13538716D01*
X11165603Y-13529192D01*
X11156079Y-13510145D01*
X11156079Y-13491097D01*
X11165603Y-13472049D01*
X11184650Y-13462526D01*
X11232269Y-13462526D01*
X11251317Y-13453002D01*
X11346555Y-13405383D02*
X11346555Y-13605383D01*
X11346555Y-13414907D02*
X11365603Y-13405383D01*
X11403698Y-13405383D01*
X11422746Y-13414907D01*
X11432269Y-13424430D01*
X11441793Y-13443478D01*
X11441793Y-13500621D01*
X11432269Y-13519668D01*
X11422746Y-13529192D01*
X11403698Y-13538716D01*
X11365603Y-13538716D01*
X11346555Y-13529192D01*
X11527508Y-13519668D02*
X11537031Y-13529192D01*
X11527508Y-13538716D01*
X11517984Y-13529192D01*
X11527508Y-13519668D01*
X11527508Y-13538716D01*
X11527508Y-13414907D02*
X11537031Y-13424430D01*
X11527508Y-13433954D01*
X11517984Y-13424430D01*
X11527508Y-13414907D01*
X11527508Y-13433954D01*
D12*
X9858460Y-13848240D02*
X9898460Y-13888240D01*
X9898460Y-13848240D02*
X9858460Y-13888240D01*
D11*
X10194174Y-13758716D02*
X10213222Y-13758716D01*
X10232270Y-13768240D01*
X10241793Y-13777764D01*
X10251317Y-13796811D01*
X10260841Y-13834907D01*
X10260841Y-13882526D01*
X10251317Y-13920621D01*
X10241793Y-13939668D01*
X10232270Y-13949192D01*
X10213222Y-13958716D01*
X10194174Y-13958716D01*
X10175127Y-13949192D01*
X10165603Y-13939668D01*
X10156079Y-13920621D01*
X10146555Y-13882526D01*
X10146555Y-13834907D01*
X10156079Y-13796811D01*
X10165603Y-13777764D01*
X10175127Y-13768240D01*
X10194174Y-13758716D01*
X10346555Y-13939668D02*
X10356079Y-13949192D01*
X10346555Y-13958716D01*
X10337031Y-13949192D01*
X10346555Y-13939668D01*
X10346555Y-13958716D01*
X10527508Y-13825383D02*
X10527508Y-13958716D01*
X10479889Y-13749192D02*
X10432270Y-13892049D01*
X10556079Y-13892049D01*
X10670365Y-13758716D02*
X10689412Y-13758716D01*
X10708460Y-13768240D01*
X10717984Y-13777764D01*
X10727508Y-13796811D01*
X10737031Y-13834907D01*
X10737031Y-13882526D01*
X10727508Y-13920621D01*
X10717984Y-13939668D01*
X10708460Y-13949192D01*
X10689412Y-13958716D01*
X10670365Y-13958716D01*
X10651317Y-13949192D01*
X10641793Y-13939668D01*
X10632270Y-13920621D01*
X10622746Y-13882526D01*
X10622746Y-13834907D01*
X10632270Y-13796811D01*
X10641793Y-13777764D01*
X10651317Y-13768240D01*
X10670365Y-13758716D01*
X10860841Y-13758716D02*
X10879889Y-13758716D01*
X10898936Y-13768240D01*
X10908460Y-13777764D01*
X10917984Y-13796811D01*
X10927508Y-13834907D01*
X10927508Y-13882526D01*
X10917984Y-13920621D01*
X10908460Y-13939668D01*
X10898936Y-13949192D01*
X10879889Y-13958716D01*
X10860841Y-13958716D01*
X10841793Y-13949192D01*
X10832270Y-13939668D01*
X10822746Y-13920621D01*
X10813222Y-13882526D01*
X10813222Y-13834907D01*
X10822746Y-13796811D01*
X10832270Y-13777764D01*
X10841793Y-13768240D01*
X10860841Y-13758716D01*
X11013222Y-13958716D02*
X11013222Y-13825383D01*
X11013222Y-13844430D02*
X11022746Y-13834907D01*
X11041793Y-13825383D01*
X11070365Y-13825383D01*
X11089412Y-13834907D01*
X11098936Y-13853954D01*
X11098936Y-13958716D01*
X11098936Y-13853954D02*
X11108460Y-13834907D01*
X11127508Y-13825383D01*
X11156079Y-13825383D01*
X11175127Y-13834907D01*
X11184650Y-13853954D01*
X11184650Y-13958716D01*
X11279888Y-13958716D02*
X11279888Y-13825383D01*
X11279888Y-13844430D02*
X11289412Y-13834907D01*
X11308460Y-13825383D01*
X11337031Y-13825383D01*
X11356079Y-13834907D01*
X11365603Y-13853954D01*
X11365603Y-13958716D01*
X11365603Y-13853954D02*
X11375127Y-13834907D01*
X11394174Y-13825383D01*
X11422746Y-13825383D01*
X11441793Y-13834907D01*
X11451317Y-13853954D01*
X11451317Y-13958716D01*
X11841793Y-13749192D02*
X11670365Y-14006335D01*
X12098936Y-13758716D02*
X12117984Y-13758716D01*
X12137031Y-13768240D01*
X12146555Y-13777764D01*
X12156079Y-13796811D01*
X12165603Y-13834907D01*
X12165603Y-13882526D01*
X12156079Y-13920621D01*
X12146555Y-13939668D01*
X12137031Y-13949192D01*
X12117984Y-13958716D01*
X12098936Y-13958716D01*
X12079888Y-13949192D01*
X12070365Y-13939668D01*
X12060841Y-13920621D01*
X12051317Y-13882526D01*
X12051317Y-13834907D01*
X12060841Y-13796811D01*
X12070365Y-13777764D01*
X12079888Y-13768240D01*
X12098936Y-13758716D01*
X12251317Y-13939668D02*
X12260841Y-13949192D01*
X12251317Y-13958716D01*
X12241793Y-13949192D01*
X12251317Y-13939668D01*
X12251317Y-13958716D01*
X12384650Y-13758716D02*
X12403698Y-13758716D01*
X12422746Y-13768240D01*
X12432269Y-13777764D01*
X12441793Y-13796811D01*
X12451317Y-13834907D01*
X12451317Y-13882526D01*
X12441793Y-13920621D01*
X12432269Y-13939668D01*
X12422746Y-13949192D01*
X12403698Y-13958716D01*
X12384650Y-13958716D01*
X12365603Y-13949192D01*
X12356079Y-13939668D01*
X12346555Y-13920621D01*
X12337031Y-13882526D01*
X12337031Y-13834907D01*
X12346555Y-13796811D01*
X12356079Y-13777764D01*
X12365603Y-13768240D01*
X12384650Y-13758716D01*
X12641793Y-13958716D02*
X12527508Y-13958716D01*
X12584650Y-13958716D02*
X12584650Y-13758716D01*
X12565603Y-13787288D01*
X12546555Y-13806335D01*
X12527508Y-13815859D01*
X12822746Y-13758716D02*
X12727508Y-13758716D01*
X12717984Y-13853954D01*
X12727508Y-13844430D01*
X12746555Y-13834907D01*
X12794174Y-13834907D01*
X12813222Y-13844430D01*
X12822746Y-13853954D01*
X12832269Y-13873002D01*
X12832269Y-13920621D01*
X12822746Y-13939668D01*
X12813222Y-13949192D01*
X12794174Y-13958716D01*
X12746555Y-13958716D01*
X12727508Y-13949192D01*
X12717984Y-13939668D01*
X12898936Y-13758716D02*
X13032269Y-13758716D01*
X12946555Y-13958716D01*
X13098936Y-13758716D02*
X13098936Y-13796811D01*
X13175127Y-13758716D02*
X13175127Y-13796811D01*
X13470365Y-14034907D02*
X13460841Y-14025383D01*
X13441793Y-13996811D01*
X13432269Y-13977764D01*
X13422746Y-13949192D01*
X13413222Y-13901573D01*
X13413222Y-13863478D01*
X13422746Y-13815859D01*
X13432269Y-13787288D01*
X13441793Y-13768240D01*
X13460841Y-13739668D01*
X13470365Y-13730145D01*
X13651317Y-13958716D02*
X13537031Y-13958716D01*
X13594174Y-13958716D02*
X13594174Y-13758716D01*
X13575127Y-13787288D01*
X13556079Y-13806335D01*
X13537031Y-13815859D01*
X13775127Y-13758716D02*
X13794174Y-13758716D01*
X13813222Y-13768240D01*
X13822746Y-13777764D01*
X13832269Y-13796811D01*
X13841793Y-13834907D01*
X13841793Y-13882526D01*
X13832269Y-13920621D01*
X13822746Y-13939668D01*
X13813222Y-13949192D01*
X13794174Y-13958716D01*
X13775127Y-13958716D01*
X13756079Y-13949192D01*
X13746555Y-13939668D01*
X13737031Y-13920621D01*
X13727508Y-13882526D01*
X13727508Y-13834907D01*
X13737031Y-13796811D01*
X13746555Y-13777764D01*
X13756079Y-13768240D01*
X13775127Y-13758716D01*
X14079888Y-13958716D02*
X14079888Y-13758716D01*
X14165603Y-13958716D02*
X14165603Y-13853954D01*
X14156079Y-13834907D01*
X14137031Y-13825383D01*
X14108460Y-13825383D01*
X14089412Y-13834907D01*
X14079888Y-13844430D01*
X14289412Y-13958716D02*
X14270365Y-13949192D01*
X14260841Y-13939668D01*
X14251317Y-13920621D01*
X14251317Y-13863478D01*
X14260841Y-13844430D01*
X14270365Y-13834907D01*
X14289412Y-13825383D01*
X14317984Y-13825383D01*
X14337031Y-13834907D01*
X14346555Y-13844430D01*
X14356079Y-13863478D01*
X14356079Y-13920621D01*
X14346555Y-13939668D01*
X14337031Y-13949192D01*
X14317984Y-13958716D01*
X14289412Y-13958716D01*
X14470365Y-13958716D02*
X14451317Y-13949192D01*
X14441793Y-13930145D01*
X14441793Y-13758716D01*
X14622746Y-13949192D02*
X14603698Y-13958716D01*
X14565603Y-13958716D01*
X14546555Y-13949192D01*
X14537031Y-13930145D01*
X14537031Y-13853954D01*
X14546555Y-13834907D01*
X14565603Y-13825383D01*
X14603698Y-13825383D01*
X14622746Y-13834907D01*
X14632269Y-13853954D01*
X14632269Y-13873002D01*
X14537031Y-13892049D01*
X14708460Y-13949192D02*
X14727508Y-13958716D01*
X14765603Y-13958716D01*
X14784650Y-13949192D01*
X14794174Y-13930145D01*
X14794174Y-13920621D01*
X14784650Y-13901573D01*
X14765603Y-13892049D01*
X14737031Y-13892049D01*
X14717984Y-13882526D01*
X14708460Y-13863478D01*
X14708460Y-13853954D01*
X14717984Y-13834907D01*
X14737031Y-13825383D01*
X14765603Y-13825383D01*
X14784650Y-13834907D01*
X14860841Y-14034907D02*
X14870365Y-14025383D01*
X14889412Y-13996811D01*
X14898936Y-13977764D01*
X14908460Y-13949192D01*
X14917984Y-13901573D01*
X14917984Y-13863478D01*
X14908460Y-13815859D01*
X14898936Y-13787288D01*
X14889412Y-13768240D01*
X14870365Y-13739668D01*
X14860841Y-13730145D01*
D13*
X9898460Y-14132240D02*
G75*
G03*
X9898460Y-14132240I-63500J0D01*
G01*
D11*
X10260841Y-14222716D02*
X10146555Y-14222716D01*
X10203698Y-14222716D02*
X10203698Y-14022716D01*
X10184650Y-14051288D01*
X10165603Y-14070335D01*
X10146555Y-14079859D01*
X10346555Y-14203668D02*
X10356079Y-14213192D01*
X10346555Y-14222716D01*
X10337031Y-14213192D01*
X10346555Y-14203668D01*
X10346555Y-14222716D01*
X10432270Y-14041764D02*
X10441793Y-14032240D01*
X10460841Y-14022716D01*
X10508460Y-14022716D01*
X10527508Y-14032240D01*
X10537031Y-14041764D01*
X10546555Y-14060811D01*
X10546555Y-14079859D01*
X10537031Y-14108430D01*
X10422746Y-14222716D01*
X10546555Y-14222716D01*
X10613222Y-14022716D02*
X10746555Y-14022716D01*
X10660841Y-14222716D01*
X10860841Y-14022716D02*
X10879889Y-14022716D01*
X10898936Y-14032240D01*
X10908460Y-14041764D01*
X10917984Y-14060811D01*
X10927508Y-14098907D01*
X10927508Y-14146526D01*
X10917984Y-14184621D01*
X10908460Y-14203668D01*
X10898936Y-14213192D01*
X10879889Y-14222716D01*
X10860841Y-14222716D01*
X10841793Y-14213192D01*
X10832270Y-14203668D01*
X10822746Y-14184621D01*
X10813222Y-14146526D01*
X10813222Y-14098907D01*
X10822746Y-14060811D01*
X10832270Y-14041764D01*
X10841793Y-14032240D01*
X10860841Y-14022716D01*
X11013222Y-14222716D02*
X11013222Y-14089383D01*
X11013222Y-14108430D02*
X11022746Y-14098907D01*
X11041793Y-14089383D01*
X11070365Y-14089383D01*
X11089412Y-14098907D01*
X11098936Y-14117954D01*
X11098936Y-14222716D01*
X11098936Y-14117954D02*
X11108460Y-14098907D01*
X11127508Y-14089383D01*
X11156079Y-14089383D01*
X11175127Y-14098907D01*
X11184650Y-14117954D01*
X11184650Y-14222716D01*
X11279888Y-14222716D02*
X11279888Y-14089383D01*
X11279888Y-14108430D02*
X11289412Y-14098907D01*
X11308460Y-14089383D01*
X11337031Y-14089383D01*
X11356079Y-14098907D01*
X11365603Y-14117954D01*
X11365603Y-14222716D01*
X11365603Y-14117954D02*
X11375127Y-14098907D01*
X11394174Y-14089383D01*
X11422746Y-14089383D01*
X11441793Y-14098907D01*
X11451317Y-14117954D01*
X11451317Y-14222716D01*
X11841793Y-14013192D02*
X11670365Y-14270335D01*
X12098936Y-14022716D02*
X12117984Y-14022716D01*
X12137031Y-14032240D01*
X12146555Y-14041764D01*
X12156079Y-14060811D01*
X12165603Y-14098907D01*
X12165603Y-14146526D01*
X12156079Y-14184621D01*
X12146555Y-14203668D01*
X12137031Y-14213192D01*
X12117984Y-14222716D01*
X12098936Y-14222716D01*
X12079888Y-14213192D01*
X12070365Y-14203668D01*
X12060841Y-14184621D01*
X12051317Y-14146526D01*
X12051317Y-14098907D01*
X12060841Y-14060811D01*
X12070365Y-14041764D01*
X12079888Y-14032240D01*
X12098936Y-14022716D01*
X12251317Y-14203668D02*
X12260841Y-14213192D01*
X12251317Y-14222716D01*
X12241793Y-14213192D01*
X12251317Y-14203668D01*
X12251317Y-14222716D01*
X12384650Y-14022716D02*
X12403698Y-14022716D01*
X12422746Y-14032240D01*
X12432269Y-14041764D01*
X12441793Y-14060811D01*
X12451317Y-14098907D01*
X12451317Y-14146526D01*
X12441793Y-14184621D01*
X12432269Y-14203668D01*
X12422746Y-14213192D01*
X12403698Y-14222716D01*
X12384650Y-14222716D01*
X12365603Y-14213192D01*
X12356079Y-14203668D01*
X12346555Y-14184621D01*
X12337031Y-14146526D01*
X12337031Y-14098907D01*
X12346555Y-14060811D01*
X12356079Y-14041764D01*
X12365603Y-14032240D01*
X12384650Y-14022716D01*
X12632269Y-14022716D02*
X12537031Y-14022716D01*
X12527508Y-14117954D01*
X12537031Y-14108430D01*
X12556079Y-14098907D01*
X12603698Y-14098907D01*
X12622746Y-14108430D01*
X12632269Y-14117954D01*
X12641793Y-14137002D01*
X12641793Y-14184621D01*
X12632269Y-14203668D01*
X12622746Y-14213192D01*
X12603698Y-14222716D01*
X12556079Y-14222716D01*
X12537031Y-14213192D01*
X12527508Y-14203668D01*
X12765603Y-14022716D02*
X12784650Y-14022716D01*
X12803698Y-14032240D01*
X12813222Y-14041764D01*
X12822746Y-14060811D01*
X12832269Y-14098907D01*
X12832269Y-14146526D01*
X12822746Y-14184621D01*
X12813222Y-14203668D01*
X12803698Y-14213192D01*
X12784650Y-14222716D01*
X12765603Y-14222716D01*
X12746555Y-14213192D01*
X12737031Y-14203668D01*
X12727508Y-14184621D01*
X12717984Y-14146526D01*
X12717984Y-14098907D01*
X12727508Y-14060811D01*
X12737031Y-14041764D01*
X12746555Y-14032240D01*
X12765603Y-14022716D01*
X12956079Y-14022716D02*
X12975127Y-14022716D01*
X12994174Y-14032240D01*
X13003698Y-14041764D01*
X13013222Y-14060811D01*
X13022746Y-14098907D01*
X13022746Y-14146526D01*
X13013222Y-14184621D01*
X13003698Y-14203668D01*
X12994174Y-14213192D01*
X12975127Y-14222716D01*
X12956079Y-14222716D01*
X12937031Y-14213192D01*
X12927508Y-14203668D01*
X12917984Y-14184621D01*
X12908460Y-14146526D01*
X12908460Y-14098907D01*
X12917984Y-14060811D01*
X12927508Y-14041764D01*
X12937031Y-14032240D01*
X12956079Y-14022716D01*
X13098936Y-14022716D02*
X13098936Y-14060811D01*
X13175127Y-14022716D02*
X13175127Y-14060811D01*
X13470365Y-14298907D02*
X13460841Y-14289383D01*
X13441793Y-14260811D01*
X13432269Y-14241764D01*
X13422746Y-14213192D01*
X13413222Y-14165573D01*
X13413222Y-14127478D01*
X13422746Y-14079859D01*
X13432269Y-14051288D01*
X13441793Y-14032240D01*
X13460841Y-14003668D01*
X13470365Y-13994145D01*
X13632269Y-14089383D02*
X13632269Y-14222716D01*
X13584650Y-14013192D02*
X13537031Y-14156049D01*
X13660841Y-14156049D01*
X13889412Y-14222716D02*
X13889412Y-14022716D01*
X13975127Y-14222716D02*
X13975127Y-14117954D01*
X13965603Y-14098907D01*
X13946555Y-14089383D01*
X13917984Y-14089383D01*
X13898936Y-14098907D01*
X13889412Y-14108430D01*
X14098936Y-14222716D02*
X14079888Y-14213192D01*
X14070365Y-14203668D01*
X14060841Y-14184621D01*
X14060841Y-14127478D01*
X14070365Y-14108430D01*
X14079888Y-14098907D01*
X14098936Y-14089383D01*
X14127508Y-14089383D01*
X14146555Y-14098907D01*
X14156079Y-14108430D01*
X14165603Y-14127478D01*
X14165603Y-14184621D01*
X14156079Y-14203668D01*
X14146555Y-14213192D01*
X14127508Y-14222716D01*
X14098936Y-14222716D01*
X14279888Y-14222716D02*
X14260841Y-14213192D01*
X14251317Y-14194145D01*
X14251317Y-14022716D01*
X14432269Y-14213192D02*
X14413222Y-14222716D01*
X14375127Y-14222716D01*
X14356079Y-14213192D01*
X14346555Y-14194145D01*
X14346555Y-14117954D01*
X14356079Y-14098907D01*
X14375127Y-14089383D01*
X14413222Y-14089383D01*
X14432269Y-14098907D01*
X14441793Y-14117954D01*
X14441793Y-14137002D01*
X14346555Y-14156049D01*
X14517984Y-14213192D02*
X14537031Y-14222716D01*
X14575127Y-14222716D01*
X14594174Y-14213192D01*
X14603698Y-14194145D01*
X14603698Y-14184621D01*
X14594174Y-14165573D01*
X14575127Y-14156049D01*
X14546555Y-14156049D01*
X14527508Y-14146526D01*
X14517984Y-14127478D01*
X14517984Y-14117954D01*
X14527508Y-14098907D01*
X14546555Y-14089383D01*
X14575127Y-14089383D01*
X14594174Y-14098907D01*
X14670365Y-14298907D02*
X14679888Y-14289383D01*
X14698936Y-14260811D01*
X14708460Y-14241764D01*
X14717984Y-14213192D01*
X14727508Y-14165573D01*
X14727508Y-14127478D01*
X14717984Y-14079859D01*
X14708460Y-14051288D01*
X14698936Y-14032240D01*
X14679888Y-14003668D01*
X14670365Y-13994145D01*
X9798460Y-14296240D02*
X9798460Y-14496240D01*
X9698460Y-14396240D02*
X9898460Y-14396240D01*
X10146555Y-14305764D02*
X10156079Y-14296240D01*
X10175127Y-14286716D01*
X10222746Y-14286716D01*
X10241793Y-14296240D01*
X10251317Y-14305764D01*
X10260841Y-14324811D01*
X10260841Y-14343859D01*
X10251317Y-14372430D01*
X10137031Y-14486716D01*
X10260841Y-14486716D01*
X10346555Y-14467668D02*
X10356079Y-14477192D01*
X10346555Y-14486716D01*
X10337031Y-14477192D01*
X10346555Y-14467668D01*
X10346555Y-14486716D01*
X10432270Y-14305764D02*
X10441793Y-14296240D01*
X10460841Y-14286716D01*
X10508460Y-14286716D01*
X10527508Y-14296240D01*
X10537031Y-14305764D01*
X10546555Y-14324811D01*
X10546555Y-14343859D01*
X10537031Y-14372430D01*
X10422746Y-14486716D01*
X10546555Y-14486716D01*
X10670365Y-14286716D02*
X10689412Y-14286716D01*
X10708460Y-14296240D01*
X10717984Y-14305764D01*
X10727508Y-14324811D01*
X10737031Y-14362907D01*
X10737031Y-14410526D01*
X10727508Y-14448621D01*
X10717984Y-14467668D01*
X10708460Y-14477192D01*
X10689412Y-14486716D01*
X10670365Y-14486716D01*
X10651317Y-14477192D01*
X10641793Y-14467668D01*
X10632270Y-14448621D01*
X10622746Y-14410526D01*
X10622746Y-14362907D01*
X10632270Y-14324811D01*
X10641793Y-14305764D01*
X10651317Y-14296240D01*
X10670365Y-14286716D01*
X10860841Y-14286716D02*
X10879889Y-14286716D01*
X10898936Y-14296240D01*
X10908460Y-14305764D01*
X10917984Y-14324811D01*
X10927508Y-14362907D01*
X10927508Y-14410526D01*
X10917984Y-14448621D01*
X10908460Y-14467668D01*
X10898936Y-14477192D01*
X10879889Y-14486716D01*
X10860841Y-14486716D01*
X10841793Y-14477192D01*
X10832270Y-14467668D01*
X10822746Y-14448621D01*
X10813222Y-14410526D01*
X10813222Y-14362907D01*
X10822746Y-14324811D01*
X10832270Y-14305764D01*
X10841793Y-14296240D01*
X10860841Y-14286716D01*
X11013222Y-14486716D02*
X11013222Y-14353383D01*
X11013222Y-14372430D02*
X11022746Y-14362907D01*
X11041793Y-14353383D01*
X11070365Y-14353383D01*
X11089412Y-14362907D01*
X11098936Y-14381954D01*
X11098936Y-14486716D01*
X11098936Y-14381954D02*
X11108460Y-14362907D01*
X11127508Y-14353383D01*
X11156079Y-14353383D01*
X11175127Y-14362907D01*
X11184650Y-14381954D01*
X11184650Y-14486716D01*
X11279888Y-14486716D02*
X11279888Y-14353383D01*
X11279888Y-14372430D02*
X11289412Y-14362907D01*
X11308460Y-14353383D01*
X11337031Y-14353383D01*
X11356079Y-14362907D01*
X11365603Y-14381954D01*
X11365603Y-14486716D01*
X11365603Y-14381954D02*
X11375127Y-14362907D01*
X11394174Y-14353383D01*
X11422746Y-14353383D01*
X11441793Y-14362907D01*
X11451317Y-14381954D01*
X11451317Y-14486716D01*
X11841793Y-14277192D02*
X11670365Y-14534335D01*
X12098936Y-14286716D02*
X12117984Y-14286716D01*
X12137031Y-14296240D01*
X12146555Y-14305764D01*
X12156079Y-14324811D01*
X12165603Y-14362907D01*
X12165603Y-14410526D01*
X12156079Y-14448621D01*
X12146555Y-14467668D01*
X12137031Y-14477192D01*
X12117984Y-14486716D01*
X12098936Y-14486716D01*
X12079888Y-14477192D01*
X12070365Y-14467668D01*
X12060841Y-14448621D01*
X12051317Y-14410526D01*
X12051317Y-14362907D01*
X12060841Y-14324811D01*
X12070365Y-14305764D01*
X12079888Y-14296240D01*
X12098936Y-14286716D01*
X12251317Y-14467668D02*
X12260841Y-14477192D01*
X12251317Y-14486716D01*
X12241793Y-14477192D01*
X12251317Y-14467668D01*
X12251317Y-14486716D01*
X12384650Y-14286716D02*
X12403698Y-14286716D01*
X12422746Y-14296240D01*
X12432269Y-14305764D01*
X12441793Y-14324811D01*
X12451317Y-14362907D01*
X12451317Y-14410526D01*
X12441793Y-14448621D01*
X12432269Y-14467668D01*
X12422746Y-14477192D01*
X12403698Y-14486716D01*
X12384650Y-14486716D01*
X12365603Y-14477192D01*
X12356079Y-14467668D01*
X12346555Y-14448621D01*
X12337031Y-14410526D01*
X12337031Y-14362907D01*
X12346555Y-14324811D01*
X12356079Y-14305764D01*
X12365603Y-14296240D01*
X12384650Y-14286716D01*
X12565603Y-14372430D02*
X12546555Y-14362907D01*
X12537031Y-14353383D01*
X12527508Y-14334335D01*
X12527508Y-14324811D01*
X12537031Y-14305764D01*
X12546555Y-14296240D01*
X12565603Y-14286716D01*
X12603698Y-14286716D01*
X12622746Y-14296240D01*
X12632269Y-14305764D01*
X12641793Y-14324811D01*
X12641793Y-14334335D01*
X12632269Y-14353383D01*
X12622746Y-14362907D01*
X12603698Y-14372430D01*
X12565603Y-14372430D01*
X12546555Y-14381954D01*
X12537031Y-14391478D01*
X12527508Y-14410526D01*
X12527508Y-14448621D01*
X12537031Y-14467668D01*
X12546555Y-14477192D01*
X12565603Y-14486716D01*
X12603698Y-14486716D01*
X12622746Y-14477192D01*
X12632269Y-14467668D01*
X12641793Y-14448621D01*
X12641793Y-14410526D01*
X12632269Y-14391478D01*
X12622746Y-14381954D01*
X12603698Y-14372430D01*
X12813222Y-14286716D02*
X12775127Y-14286716D01*
X12756079Y-14296240D01*
X12746555Y-14305764D01*
X12727508Y-14334335D01*
X12717984Y-14372430D01*
X12717984Y-14448621D01*
X12727508Y-14467668D01*
X12737031Y-14477192D01*
X12756079Y-14486716D01*
X12794174Y-14486716D01*
X12813222Y-14477192D01*
X12822746Y-14467668D01*
X12832269Y-14448621D01*
X12832269Y-14401002D01*
X12822746Y-14381954D01*
X12813222Y-14372430D01*
X12794174Y-14362907D01*
X12756079Y-14362907D01*
X12737031Y-14372430D01*
X12727508Y-14381954D01*
X12717984Y-14401002D01*
X13003698Y-14286716D02*
X12965603Y-14286716D01*
X12946555Y-14296240D01*
X12937031Y-14305764D01*
X12917984Y-14334335D01*
X12908460Y-14372430D01*
X12908460Y-14448621D01*
X12917984Y-14467668D01*
X12927508Y-14477192D01*
X12946555Y-14486716D01*
X12984650Y-14486716D01*
X13003698Y-14477192D01*
X13013222Y-14467668D01*
X13022746Y-14448621D01*
X13022746Y-14401002D01*
X13013222Y-14381954D01*
X13003698Y-14372430D01*
X12984650Y-14362907D01*
X12946555Y-14362907D01*
X12927508Y-14372430D01*
X12917984Y-14381954D01*
X12908460Y-14401002D01*
X13098936Y-14286716D02*
X13098936Y-14324811D01*
X13175127Y-14286716D02*
X13175127Y-14324811D01*
X13470365Y-14562907D02*
X13460841Y-14553383D01*
X13441793Y-14524811D01*
X13432269Y-14505764D01*
X13422746Y-14477192D01*
X13413222Y-14429573D01*
X13413222Y-14391478D01*
X13422746Y-14343859D01*
X13432269Y-14315288D01*
X13441793Y-14296240D01*
X13460841Y-14267668D01*
X13470365Y-14258145D01*
X13632269Y-14353383D02*
X13632269Y-14486716D01*
X13584650Y-14277192D02*
X13537031Y-14420049D01*
X13660841Y-14420049D01*
X13889412Y-14486716D02*
X13889412Y-14286716D01*
X13975127Y-14486716D02*
X13975127Y-14381954D01*
X13965603Y-14362907D01*
X13946555Y-14353383D01*
X13917984Y-14353383D01*
X13898936Y-14362907D01*
X13889412Y-14372430D01*
X14098936Y-14486716D02*
X14079888Y-14477192D01*
X14070365Y-14467668D01*
X14060841Y-14448621D01*
X14060841Y-14391478D01*
X14070365Y-14372430D01*
X14079888Y-14362907D01*
X14098936Y-14353383D01*
X14127508Y-14353383D01*
X14146555Y-14362907D01*
X14156079Y-14372430D01*
X14165603Y-14391478D01*
X14165603Y-14448621D01*
X14156079Y-14467668D01*
X14146555Y-14477192D01*
X14127508Y-14486716D01*
X14098936Y-14486716D01*
X14279888Y-14486716D02*
X14260841Y-14477192D01*
X14251317Y-14458145D01*
X14251317Y-14286716D01*
X14432269Y-14477192D02*
X14413222Y-14486716D01*
X14375127Y-14486716D01*
X14356079Y-14477192D01*
X14346555Y-14458145D01*
X14346555Y-14381954D01*
X14356079Y-14362907D01*
X14375127Y-14353383D01*
X14413222Y-14353383D01*
X14432269Y-14362907D01*
X14441793Y-14381954D01*
X14441793Y-14401002D01*
X14346555Y-14420049D01*
X14517984Y-14477192D02*
X14537031Y-14486716D01*
X14575127Y-14486716D01*
X14594174Y-14477192D01*
X14603698Y-14458145D01*
X14603698Y-14448621D01*
X14594174Y-14429573D01*
X14575127Y-14420049D01*
X14546555Y-14420049D01*
X14527508Y-14410526D01*
X14517984Y-14391478D01*
X14517984Y-14381954D01*
X14527508Y-14362907D01*
X14546555Y-14353383D01*
X14575127Y-14353383D01*
X14594174Y-14362907D01*
X14670365Y-14562907D02*
X14679888Y-14553383D01*
X14698936Y-14524811D01*
X14708460Y-14505764D01*
X14717984Y-14477192D01*
X14727508Y-14429573D01*
X14727508Y-14391478D01*
X14717984Y-14343859D01*
X14708460Y-14315288D01*
X14698936Y-14296240D01*
X14679888Y-14267668D01*
X14670365Y-14258145D01*
M02*
